<?xml version="1.0" standalone="no"?>
<!DOCTYPE svg PUBLIC "-//W3C//DTD SVG 1.1//EN" "http://www.w3.org/Graphics/SVG/1.1/DTD/svg11.dtd" >
<svg xmlns="http://www.w3.org/2000/svg">
<metadata></metadata>
<defs>
<font id="a_machinaortoshtregular" horiz-adv-x="944" >
<font-face units-per-em="2048" ascent="1638" descent="-410" />
<missing-glyph horiz-adv-x="684" />
<glyph horiz-adv-x="2048" />
<glyph horiz-adv-x="2048" />
<glyph unicode="&#xd;" horiz-adv-x="684" />
<glyph horiz-adv-x="2048" />
<glyph unicode=" "  horiz-adv-x="684" />
<glyph unicode="&#x09;" horiz-adv-x="684" />
<glyph unicode="&#xa0;" horiz-adv-x="684" />
<glyph unicode="!" horiz-adv-x="589" d="M104 1180l23 12l147 -410l-143 99q-27 74 -27 299zM104 1217v6l2 -6h-2zM104 1401v115h379v-111l-358 -62q-2 6 -11.5 30t-9.5 28zM109 0v33l55 -33h-55zM109 66v276h210l52 -342h-150zM121 1313l362 63v-229l-338 98zM135 852l139 -94l-118 -45zM139 1223l344 -103v-65 l-188 -269zM158 692l123 47l47 -319h-64l-71 31zM311 735l119 -30l-41 -285h-29zM313 770l162 229l-41 -262zM371 342h106v-20l-88 -93zM406 209l71 74v-275l-6 -8h-33z" />
<glyph unicode="&#x22;" horiz-adv-x="774" d="M84 954v381l18 -8l179 -188zM84 1384v142h90zM90 903l25 25l100 -25h-125zM90 1360l107 166h102l41 -164l-225 -12zM117 1331l231 -102v-37l-53 -49zM119 946l184 172l45 -16v-199h-49q-70 16 -180 43zM123 1335l225 15v-113zM307 1135l41 36v-55zM319 1526h29v-94l-6 2z M342 1417h6v-24zM426 903v164l8 -2l62 -162h-70zM426 1083v23l10 -29zM426 1135v69l172 -8l-102 -242zM426 1221v108q0 18 18 74l209 -195zM426 1380v17l4 -2zM426 1411v115h33l-29 -117zM453 1411l30 115h45l162 -283v-29l-28 3zM508 946l102 240l80 -4v-187l-55 -92h-111z M549 1526h141v-250zM655 903l35 60v-60h-35z" />
<glyph unicode="#" horiz-adv-x="921" d="M-43 334l43 254h123l24 151h-122l43 254h122l37 226h248l-37 -226h121l37 226h248l-37 -226h123l-43 -254h-123l-25 -151h123l-43 -254h-123l-34 -219h-246l35 219h-123l-35 -219h-246l35 219h-125zM371 588h121l24 151h-121z" />
<glyph unicode="$" d="M74 197v90l389 -303l8 -136h-113v150h-65zM74 324v153h61l330 -203l20 -272zM74 774v21l20 -9zM74 817v17l348 96v-84h70l-33 -150zM74 864v307l219 197h65v59l131 89h95v-148h6l-70 -309h-98v-96zM82 741l57 41l303 -98l-290 -8zM172 659l279 9l12 -142h-150zM176 477 h246v-149zM358 1475v41h60zM459 303h20v-12zM477 651l109 -217l-66 -371l-16 240h16v223h-33zM487 696l35 150h107l76 -72zM496 668l233 86l123 -115l-102 -483zM526 18q0 8 2 19l66 369l156 -316l-103 -92h-63v-31l-49 -10q-8 63 -9 61zM532 899l13 49l160 -49h-173z M549 -82l35 6v-76h-31zM569 979l86 381l215 -189v-272h-39zM778 143l92 441v-389l-82 -72z" />
<glyph unicode="%" horiz-adv-x="1316" d="M18 838v59l449 455l131 -117v-211l-381 -289l-76 4zM18 950v285l148 131h264zM139 102l299 430l164 -90l-303 -428zM233 713l365 276v-151l-147 -136q-72 2 -218 11zM276 930h68v209h-68v-209zM461 561l31 45l159 60l33 -105l-61 -90zM512 635l29 41l73 -4zM557 696 l94 135l-8 -139zM676 705l12 176l164 233l133 -127l-174 -246zM680 655l59 -16l-37 -53zM682 676l104 29l-32 -50zM717 418v41l16 -49zM721 528l94 88l340 -100l-113 -127v43h-69v-123l-137 -153zM831 633l31 26h158l84 -106zM864 131l109 123v-27h69v107l142 160l112 -33 v-326l-147 -135h-244zM868 1139l131 188l125 -143l-123 -172zM1020 1356l16 20l166 -82l-59 -82zM1055 659h94l147 -131v-20l-157 45z" />
<glyph unicode="&#x26;" horiz-adv-x="1247" d="M88 205v391l105 78l137 -277l-219 -213zM109 856v274l499 279h80l84 -74l-39 -225l-155 -154v140h-134v-211h60l-90 -90zM109 1165v52l219 192h215zM150 150l75 71q49 14 238 66q41 12 119 28l2 4l67 21l-8 -340h-328zM168 799l496 -101l-127 -123h-93v-88l-84 -77 l-141 284l29 21l-68 57zM240 258l204 197v-140zM432 772l117 113h29v28l174 172l-66 -364zM561 569l115 109l-8 -301l-60 -17l41 70zM696 111l17 567l360 -105l-74 -122l58 -86zM711 731l61 338l133 12v-133l-131 -145l6 -12zM713 0l4 84l360 252l172 -262l-119 -74h-210 l-101 154l-88 -154h-18zM713 713l75 65l29 -47l39 72h119l-41 -156zM793 1102l32 184l80 -69v-103zM973 659l41 144h196l-108 -180zM1196 0l72 45l30 -45h-102z" />
<glyph unicode="'" horiz-adv-x="432" d="M84 903v60l117 -60h-117zM84 979v156l129 -62l14 -168zM84 1147v20l125 41l12 -127zM84 1180v86q0 2 4 16q4 29 16 86l103 -149zM84 1323v66l10 -15zM84 1423v103h133l-4 -174l-113 47zM104 1384l111 -47l-2 -112zM219 1208l84 -53l-72 -90zM221 1225l6 180l121 -119v-24 zM225 1212l103 33q20 -82 20 -106zM233 1413l5 107l110 -80v-137zM238 1053l73 90l37 -21v-200l-18 -19h-80zM254 1526h94v-68zM342 1245l6 2v-26z" />
<glyph unicode="(" horiz-adv-x="811" d="M133 231v43l424 -34l88 -338l-67 -62l-33 6zM133 311v33l318 381q2 -4 2 -385l65 -61zM133 432v375l113 -238zM133 864v152l303 -252l-162 -195zM133 1049v239l96 90l58 -170l-115 -192zM197 983l114 193l133 -396zM270 1374l295 -92l-112 -106v-336zM279 1425l127 117 l321 -2l57 -53l-190 -180l-309 98zM438 1573l127 117l127 -119zM647 158l137 -129l-84 -78z" />
<glyph unicode=")" horiz-adv-x="811" d="M27 29l143 135l-57 -213zM27 1487l219 203l106 -101l-4 -143l-160 -111zM168 -86l78 291l434 82v-56l-320 -297zM197 -131l108 12l-59 -55zM215 1311l145 100l-8 -229zM250 242l108 98q0 41 -4 125t-4 125q0 111 15 135l315 -270v-133zM371 784l18 525l291 -211v-191z M389 758l291 114v-368zM406 1339l6 197l268 -248v-147z" />
<glyph unicode="*" d="M119 866l12 13l8 -35zM119 1010v51l200 -2l27 -225l-98 -97l-78 78l-23 80l101 92h-123q-6 12 -6 23zM119 1090v77h110l-67 -77h-43zM123 1286l135 -86l-20 -24zM135 1303l117 112l127 -121v33l31 -106l-197 32zM180 1083l99 109l176 -111zM225 1237l199 -33l37 -119z M332 1069h131q-51 -119 -103 -223zM379 741v66l358 121q49 -12 70 -47l-191 -66l-51 49v-67q-172 -59 -186 -56zM379 819v31l96 213l258 -125zM383 1415h6q25 0 176 -33v-88l74 74l131 -29l53 -51q-57 -84 -213 -133l-170 78zM430 1221l172 -78l-127 -58zM457 741l108 37 v-37h-108zM483 1077l201 92l-53 -161zM516 1415h49v-10zM631 803l188 65l4 -2l-131 -125zM651 1008l54 159h118v-180h-127l4 -4zM659 1384l33 31l49 -47z" />
<glyph unicode="+" d="M29 557v260h225l53 -37l-53 -223h-225zM276 557l52 223l131 -94l-156 -129h-27zM309 817h27v146l170 28l-45 -282zM328 557l135 113l98 -291l-225 39v139h-8zM336 246v151l217 -37l39 -114h-256zM336 981v149h180l-18 -122zM479 676l129 -141v-19l-61 -45zM479 705 l58 356l71 -158v-86h39l12 -31zM492 684l286 131l-12 -258zM549 1077l8 53h51v-182zM561 446l47 37v-174zM668 817h34l-28 -12zM784 557l13 258q4 2 8 2h108v-231l-14 -29h-115z" />
<glyph unicode="," horiz-adv-x="552" d="M66 -170l36 49l129 -69l-6 -74zM100 18l93 172l57 -165q-74 -27 -150 -54v47zM100 39v149l56 74l26 -69zM100 209v108h31l16 -47zM109 -113l63 84h-31l109 41l-12 -192zM164 307l119 -16l-13 -111l-57 -16zM215 152l57 16l-14 -137zM215 317h66l-2 -10zM250 -274l8 133 l74 59l24 -31zM252 -127l10 139l66 -78zM264 27l17 149l129 -137zM270 16l164 15q-16 -66 -69 -131zM289 184l14 133h41l109 -104v-164l-35 -2zM367 317h86v-84zM442 14l4 11h5z" />
<glyph unicode="-" horiz-adv-x="692" d="M94 569v54l113 26l102 -88h-198zM94 647v174h33l-21 -170zM115 647l20 174h27l47 -35l-25 -122zM193 662l24 122l119 -90zM193 821h174l-101 -55zM213 655l127 29l14 -123h-28zM268 758l117 63h37l-76 -121zM348 684l29 -66l-8 -57h-9zM352 690l172 53l-133 -137z M352 696l49 82l58 -49zM373 561l8 43l18 -43h-26zM397 602l133 139l56 17l-90 -197h-80zM414 786l20 35h164v-43l-129 -41zM504 561q45 94 94 193v-193h-94z" />
<glyph unicode="." horiz-adv-x="552" d="M86 -8v37l94 -54h-69zM86 -16l10 -9h-10v9zM86 35v71h12l201 -83l12 -48h-114zM86 127v156l16 41h31l31 -41l-62 -154zM86 309v15h4zM102 115l168 28l33 -114zM111 127l61 152l94 -125zM154 324h122l-2 -37l-100 10zM178 287l101 -13l-9 -114zM279 145l118 -59l-98 -8z M279 156l8 159l45 -125zM283 150l82 51l20 -103zM291 324h90q14 0 41 -9q37 -10 43 -12v-29l-129 -77zM305 70l98 8l60 -33l-41 -70h-90zM375 201l90 55v-186q0 -2 -2 -7l-68 35zM434 324h31v-9zM438 -25l27 45v-45h-27z" />
<glyph unicode="/" horiz-adv-x="565" d="M0 -195l41 240l186 -240h-227zM47 80l55 313l185 -266l-49 -291zM106 424l39 221l109 -6q0 -4 35 -186q22 -115 22 -189q0 -18 -20 -106zM150 666l2 6l81 -10zM152 688l53 295l123 86l-76 -393zM209 1016l78 440l57 55h53l-82 -417zM276 684l107 557l63 -201l-53 -305z M279 641l90 -39l-45 -258zM283 659l106 48l-16 -89zM295 1499l2 12h10zM410 1270l45 241h73l-69 -399z" />
<glyph unicode="0" d="M61 197v41l193 188l158 -6v-113h125v109l114 -4l197 -248l-156 -137l-524 75zM61 862l351 -170v-49l-336 -328zM61 897v25l351 100v-295zM61 942v119l463 211l-28 -207q-31 -14 -84 -8v-15zM61 1096v73l222 197h237l-8 -63zM217 57l397 -57h-331zM254 455l158 153v-159z M532 1057l13 86l237 -123l-245 -256v293h-5zM537 442v144l114 -148zM537 614v41l221 -57l28 -303zM537 680v45l231 244l117 -215v-164zM561 1176l25 190h78l221 -197v-26l-90 -94zM784 586l101 -27v-362h-2l-68 86zM795 979l90 92v-258z" />
<glyph unicode="1" d="M111 0v88l159 -88h-159zM111 123v184h65l305 -182l6 -125h-151zM143 1069v172l185 125h88v-68zM152 1038l282 238l2 -305l-129 -103v170h-155zM225 307h82v199l156 147l29 -503zM307 535v112l144 25zM307 668v174l148 116l4 -266zM487 700v230l170 -4v-127zM489 666 l168 -15v-262l-145 -168zM492 1366h86l79 -59v-357l-161 4zM500 692l157 90v-104zM532 205l125 147v-45h183v-57l-299 -236zM569 0l271 213v-213h-271zM631 1366h26v-20z" />
<glyph unicode="2" d="M61 0v229l480 -229h-480zM61 262v115l99 65l252 -84v-51h131l80 -307h-17zM61 434v53l54 48l45 -35zM74 885v69l422 412h88l-35 -174l-318 -307h-157zM74 987v180l209 199h180zM131 549l158 137l155 -8l-256 -170zM166 467l299 197l51 -203l-90 -82zM258 885l154 147 v-147h-154zM315 709l181 157l-33 -166zM434 1057l123 119l-25 -119h-98zM483 705l37 184l17 12q-2 14 -2 31q0 55 22 133l143 -164zM489 688l259 234l-72 -318zM492 664l165 -76l-120 -109zM573 1094l54 272h37l221 -197v-92l-168 -151zM594 307h291v-168l-127 -139h-86z M719 643l59 279l107 94v-223zM807 0l78 84v-84h-78z" />
<glyph unicode="3" d="M49 197v213l340 8v-111h135v82l107 -307l-549 86zM49 430v16l43 25h297v-33zM104 1067v268q47 31 326 31l4 -299h-330zM135 121l488 -76l16 -45h-369zM283 606v201l149 -123l-137 -78h-12zM295 831l156 185l2 -314zM340 606l106 62l21 -62h-127zM465 950l211 133 l-209 -376zM471 688l127 230l78 -318zM471 1366h352l-139 -250l-209 -133v64l17 20h-17zM473 670l268 -115l-182 -133q-39 76 -39 153q0 16 4 31h-28zM578 401l180 131l114 -49v-274q0 -10 -75 -80q-66 -59 -97 -84zM631 930l219 399v-254l-203 -215zM651 838h45l176 -154 v-143l-163 69z" />
<glyph unicode="4" d="M10 532l105 187l102 -209l-154 -117zM82 348l127 98l311 -43l78 -319l-106 10v166h-377zM133 748l10 18l254 -70l-57 -108l-94 -74zM152 778l55 99l207 -152l-8 -14zM213 889l49 86l281 -49l-68 -203v117l-55 -103zM221 471l98 78v-2h156v117l57 -236zM276 999l211 367 h185l-140 -412zM492 0v57l96 -8l12 -49h-108zM494 692l84 250l176 -237zM500 670l327 14v-94l-231 -316zM604 963l135 403h88v-637l-45 -4zM618 262l211 285h123v-268l-18 -19h-107v-100l-147 -142zM705 0v2l122 117v-119h-122z" />
<glyph unicode="5" d="M57 199v223l377 -199l-4 -223h-143q-147 121 -230 199zM57 451h340v-142h49v-63zM80 762v166l182 -129l-108 -105zM80 987v121l395 258h78l-49 -309h-98v-105l-300 19zM80 1145v221h340zM113 946l293 -16v-53h79l-28 -177zM168 682l117 113l161 -115l-194 -76zM268 590 l183 72v-99h-154zM473 274l2 35h57v254h-57l2 96l250 -297zM477 696l31 181h80l92 -150zM483 0l2 246l254 86l125 -148l-205 -184h-176zM494 676l329 51l58 -51v-21l-140 -274zM549 1057l49 309h27l161 -178v-131h-237zM618 877h41l127 -117l-90 -15zM672 1366h114v-125z M766 377l115 221v-356z" />
<glyph unicode="6" d="M63 227v301l99 -184zM63 578v57l386 37l-267 -316zM63 668v354l93 170l96 -164l-47 -346zM63 1100v69l54 48l6 -9zM82 184l229 273l103 -107v-43h41l123 -127l20 -82l-459 31zM170 1266q96 29 192 57q119 33 197 39q45 4 105 4l65 -59l-57 -127l-230 -123h-28v-17 l-86 -45zM184 90l406 -29l12 -61h-319zM225 672l45 346l189 -324zM225 1317l58 49h120zM319 479l152 180l33 -129h-90v-149zM328 967l86 47v-172h121l-60 -133zM483 307h54v92l47 -194zM492 676l344 12l24 -18l-307 -252q-23 78 -16 112h-13zM494 694l65 148h105l151 -133z M496 1057l176 94l-90 -203h-37v109h-49zM573 399l306 252l6 -4v-426q-23 -55 -215 -215zM606 948l4 6l8 -6h-12zM635 971l133 303l117 -105v-221h-221z" />
<glyph unicode="7" d="M72 1057v309h18l103 -203l-17 -106h-104zM88 0l51 127l217 -127h-268zM152 160l118 305l262 -113l25 -86l-96 -266h-39zM172 1335l680 -168v-88l-57 -153l-21 -13l-270 142l2 2h-6l-258 135zM172 1366h680v-170zM207 1057l14 90l45 -90h-59zM233 1171l218 -114h-160z M283 492l12 32l162 144l80 -287zM311 569l41 103h78zM362 696l35 90l45 -86zM410 815l86 217l270 -141l-303 -182zM475 664l203 -62l-105 -287zM481 688l293 176l-88 -241z" />
<glyph unicode="8" d="M66 199v379l49 38l209 -157l-168 -340zM86 825v15l31 -41zM86 874v13l363 -195l-256 41zM86 926v110l563 320l76 -68l-115 -248l-71 -39v56h-131v-127l-162 -90zM86 1071v98l221 197h301zM139 635l86 65l-18 17l244 -37l-103 -205zM197 78l180 364l31 -28v-107h112 l156 -143l12 -33l-436 -102zM248 819l160 86v-69h124l-63 -136zM381 467l27 53v-78zM416 539l59 120l53 -120h-112zM487 672l248 51l-2 -10l-14 -13l8 -6l-94 -358zM496 705l217 471l143 -213v-138l-70 -63zM539 319v195l141 -326zM539 852v125l75 41zM657 324l93 352 l129 -98v-379l-121 -109zM659 0l25 96l23 -51zM737 1194l29 57l90 -82v-149z" />
<glyph unicode="9" d="M57 197v147l41 -106l-37 -45zM57 410v14h197l-135 -170zM57 717v397l29 62l229 -332l-172 -205zM94 164l170 213l420 -217l45 -99l-61 -53l-549 135zM141 1245l138 121h380l129 -113l-618 -49zM160 627l182 213l109 -158l-230 -111zM164 102l418 -102h-303zM164 1180 l651 49l68 -60v-67l-129 -119l-222 53v21q-16 -4 -38 -4q-84 0 -283 57zM205 1090l203 -48v-206h124v176l216 -49l-277 -254zM233 561l209 101l-110 -140h-53zM266 401l21 23h112v-92zM365 522l106 133l61 -133h-167zM446 307h86v213l156 -336zM481 676l215 8l-114 -227z M489 694l291 269l-47 -258zM610 442l115 226l158 8v-479l-113 -99zM766 715l45 256l72 65v-315z" />
<glyph unicode=":" horiz-adv-x="602" d="M111 0v55l73 -6l-8 -49h-65zM111 82v192q0 2 2 7l116 -11l-36 -196zM111 326v22h12zM111 913v39l8 -39h-8zM111 995q2 2 2 4q0 4 -2 7l45 -93h-29zM111 1063v121l385 -168v-103h-217q-37 10 -111 33zM111 1204v58h385v-224zM121 303l26 45h99l-8 -55zM164 928l49 -15h-41 zM211 0l29 156l243 192h13v-233l-148 -115h-137zM231 176l31 172h189zM389 0l107 82v-82h-107z" />
<glyph unicode=";" horiz-adv-x="602" d="M90 -152l84 113l-27 -145zM125 -10v198l104 76l-49 -274h-55zM125 215v31l57 90h68l-8 -33zM125 336h45l-35 -53q0 8 -5 26.5t-5 26.5zM125 909v160l2 2l37 -162h-39zM139 1257h338v-147l-317 61zM154 1135l323 -62v-164h-270zM190 -147l41 229l199 254h47v-287l-74 -110 zM205 -217l8 41l156 65l-97 -147zM217 102l43 234h139z" />
<glyph unicode="&#x3c;" d="M37 573v242l321 127l31 -98l-213 -242l-106 -41zM139 553l307 123l-79 -232l-203 80zM197 594l213 242l43 -140zM385 952l41 17l33 -252zM389 434l82 242l338 -166l-363 -96zM451 979l188 74l252 -148v-39l-195 -75l-229 71zM455 848l217 -68l-199 -80zM475 401l340 91 l76 -37v-99l-152 -57zM573 643l146 -57l6 -17zM666 1061l194 76l31 -23v-184zM750 573l141 -55v-22l-137 69zM762 287l129 49v-98zM885 1147l6 2v-4z" />
<glyph unicode="=" d="M37 360v117l18 -117h-18zM37 621h139l107 -86l-185 -175h-16zM37 764v260h180l-139 -260h-41zM111 764l139 260h74l43 -104l-31 -156h-225zM147 360l189 181l205 -76l41 -105h-435zM201 621h182l-84 -78zM342 561l64 60h86l53 -134zM348 764l33 145l57 -145h-90z M365 1024h430l-78 -74l-330 17zM381 946l330 -16l-179 -166h-77zM510 621h129l-100 -74zM555 764l86 80l59 -80h-145zM557 537l115 84h233v-111l-98 -150h-180zM664 854l180 170h22l39 -57v-203h-176zM834 360l71 109v-109h-71zM893 1024h12v-16z" />
<glyph unicode="&#x3e;" d="M35 238v239l71 33l254 10l-94 -190zM35 512v6l18 8v-6zM35 866v129l28 -22l-26 -109zM35 1067v59l45 4l373 -143l-168 -123zM61 856l25 111l98 -78l-24 -72zM68 520l6 12l155 62zM123 532l260 123q20 10 63 27l-67 -141zM174 811l27 76l209 -168zM295 846l180 131l66 -27 l-82 -239zM315 348v4l250 148l27 -41zM315 377l144 299l102 -154zM471 692l176 82l-69 -246zM477 713l78 233l215 -86l6 -6zM602 524l68 244l153 72l66 -25v-242l-254 -98z" />
<glyph unicode="?" horiz-adv-x="1015" d="M78 985v315l119 107l122 -285l-77 -137h-164zM246 1450l76 66h376l174 -156l-77 -121l-230 -109v58h-116v-115l-33 -14zM279 985l69 121l49 -121h-118zM328 0v113l90 -113h-90zM328 150v192h178l22 -342h-79zM328 420v96l133 -96h-133zM328 545v205l166 -5l20 -325h-14z M328 774v4l116 103l48 -111zM412 1024l37 16v-55h-21zM465 899l100 86v113l226 106l-275 -422zM520 768l121 184l88 -112zM522 737l174 -155v-127l-157 24zM532 752l304 104l4 -53l-144 -131v-68zM553 420v29l143 -23v-6h-143zM559 342h137v-342h-114zM668 975l233 360 l41 -35v-374l-186 -64zM864 852l51 18l-47 -43z" />
<glyph unicode="@" horiz-adv-x="1548" d="M80 -37v1403l129 123h1130l129 -123v-1085l-129 -125h-751l-139 123v434l139 123h248v116h-349v219h484l129 -124v-682h123v907h-897v-1217h774v-215h-891zM713 365h123v251h-123v-251z" />
<glyph unicode="A" horiz-adv-x="1081" d="M76 0v125l383 -125h-383zM76 160v385l55 20l328 -293v-237zM76 606v420l100 -65l25 -306zM76 1071v10l383 -77v-181zM76 1106v108l59 62l739 67l-231 -356l-20 4v195h-164v-160zM154 590l305 119v-50h59l-31 -315h-28v-27zM170 1311l207 205h592l-92 -142zM217 958 l242 -155v-66l-213 -86zM516 344l29 315h78v41l290 -149l-299 -207h-98zM623 0v55l385 162v-217h-385zM623 98v221l303 209l82 -41v-227zM623 729v31l385 39v-66l-115 -143zM623 782v82l258 398l51 -447zM623 922v49l28 -6zM907 1280l101 154v-594l-50 -4zM926 586l82 100 v-141z" />
<glyph unicode="B" horiz-adv-x="1042" d="M76 0v72l49 71l674 -73l4 -9l-64 -61h-663zM76 178v735l215 -432zM76 975v37l428 -254l-189 -264zM76 1057v438l22 21h209l62 -238l-222 -264zM150 176l129 182l466 -125l60 -124zM168 985l223 264l33 -131l33 33v-225h18l37 -144zM281 381l247 348l50 -106h-121v-287 h143v237l150 -315zM373 1516h196l389 -299v-312l-358 80v197h-141zM508 926h92v30l338 -75l-82 -74l-309 -37zM545 741l272 -129l-110 -215l-107 226h-2zM553 754l227 28l181 -221zM616 1516h107l235 -207v-56zM737 365l111 217l133 -62v-299l-125 -112zM815 770v4h4z M819 766l162 -127v-70z" />
<glyph unicode="C" horiz-adv-x="1056" d="M68 227v244l505 -471h-260q-63 55 -127 109q-74 66 -118 118zM68 502v329l125 -30l256 -371v-94h63l111 -160l39 -176h-56zM68 868v58l100 -37l-41 -33zM68 963v172l690 358l67 -59l-190 -383l-35 -9v140h-151v-174l-316 -70zM68 1167v133l245 216l422 -5zM137 913 l312 70v-184zM160 846l37 31l252 -93v-6zM211 811l238 -53v-291zM539 336h61v35l39 -183zM600 483v66h195l186 -131v-201l-272 -217zM600 973v43l39 10l-25 -53h-14zM659 973l148 303l174 -62v-241h-322zM825 1309l43 90l113 -101v-47zM862 549h119v-82z" />
<glyph unicode="D" horiz-adv-x="1056" d="M76 0v252l669 -244l-6 -8h-663zM76 281v215l381 -29v-131h143v123l98 -8l207 -299l-135 -123zM76 524v15l381 174v-217zM76 573v41l24 -28zM76 668v127l381 -37v-21l-316 -145zM76 831v685h30l209 -404l-53 -299zM184 1473l797 -224v-98l-203 -156l-178 76v111h-143v-49 l-121 51zM184 1516h555l242 -216v-20l-788 223zM291 791l55 299l111 -209v-105zM332 1159l125 -53v-186zM600 483v140l100 -148zM600 664v53l168 -72l35 -272zM600 745v46l381 294v-503zM600 834v210l174 -75zM791 627l190 -82v-318l-39 -41l-119 170z" />
<glyph unicode="E" horiz-adv-x="872" d="M76 0v94l39 64l438 -158h-477zM76 193v284l141 -51zM76 510v100l342 131l-176 -290zM76 647v477l248 392h86q-14 -82 -33 -246l-12 -281l-199 -307zM76 1182v334h211zM129 188l88 148l240 53v-53h161l142 -336h-113zM184 668l193 274l41 -182zM215 365l223 368l51 -104 h-32v-209zM397 989l13 248l82 -55h-35v-240h161l-174 -160zM418 1276l24 186l367 -65v-215h-277zM444 1497v19h365v-80zM467 741l285 -20v-92h-232zM471 770l197 172h84v-190zM664 336h59l-33 -57zM700 256l48 80h61v-45l-78 -101zM743 160l66 86v-246z" />
<glyph unicode="F" horiz-adv-x="849" d="M76 0v80l381 -55v-25h-381zM76 123v201l194 215l187 -252v-219zM76 385v526l330 -159zM76 963v315l485 94l-49 -190h-55v-68l-219 -229zM76 1315v201h518l-29 -111zM254 860l203 213v-131h18l-43 -168zM281 565l151 168q25 -152 25 -151v-252zM444 774l64 168h86l18 -49z M451 737l219 -108h-195zM455 762l274 180h8v-313h-16zM565 1182l86 334h144v-334h-230zM623 942h67l-53 -35z" />
<glyph unicode="G" horiz-adv-x="1056" d="M68 217v164l223 -336l-4 -20zM68 449v370l149 -28l217 -271l-115 -448zM68 893v407l182 162l119 -342zM70 856l321 242l58 -172v-142zM238 803l211 -39v-223zM291 1497l22 19h162l334 -134l-51 -104l-158 -104v8h-151v-164zM334 0l82 254l90 82h94v86l55 53l201 -364 l-125 -111h-397zM410 287l39 151v-102h14zM524 496v237l125 -225l-49 -47v35h-76zM524 774v45h23zM541 770l24 49h262l41 -74zM543 748l354 -27l-209 -238zM586 1516h145l88 -76l-8 -15zM600 948v195l158 106l-148 -301h-10zM631 948l65 131l66 -131h-131zM715 463l207 239 l59 -4v-481l-88 -76zM719 1090l121 245l141 -194v-193h-190zM856 819h125v-69l-92 8zM877 1358l12 22l92 -80v-88z" />
<glyph unicode="H" horiz-adv-x="1069" d="M76 0v53l43 -53h-43zM76 102v441l166 69l131 -170l-197 -442h-24zM76 586v217q8 20 18 55q35 111 94 334l316 -426zM76 899v447l88 -127zM76 1384v132h383v-117zM127 1346l332 14v-203l-246 72zM217 1204l242 -69v-185h143l-74 -166zM233 0l119 266l107 62v-328h-226z M266 639l254 106l-49 -110h-12v-29l-62 -139zM342 299l117 262v-196zM492 635l45 100l258 -178l-185 -106v184h-118zM557 770l164 352l272 -278v-68zM563 754l430 4v-66l-190 -106zM610 0v414l195 110l188 -131v-307l-293 -86h-90zM610 965v125l49 -17zM610 1114v258l181 12 l-132 -286zM610 1411v105h219l-41 -91zM743 1139l134 293l116 -150v-401zM811 0v4l182 41v-45h-182zM840 575l153 84v-192zM899 1446l31 70h63v-189z" />
<glyph unicode="I" horiz-adv-x="546" d="M82 0v145l229 -145h-229zM82 188v334h246l137 -391v-131h-84zM82 551v72l184 122l62 -194h-246zM82 639v154l172 -39zM82 815v246l168 -285zM82 1130v123l383 -147v-145l-334 83zM82 1282v234h383v-381zM127 1030l338 -88v-102l-184 -60zM293 735l172 -45v-22l-103 -105z M299 758l166 57v-94zM369 539l96 88v-402l-4 2z" />
<glyph unicode="J" horiz-adv-x="1036" d="M51 217v111l123 -222zM51 381v168h264l103 -213l-45 -336h-80l-55 43zM264 1182v334h520l-106 -269l-309 -65h-105zM344 549h78v-160zM438 0l45 336h97v82l338 102l43 -20v-264l-136 -130l-264 -106h-123zM508 1182v4l151 24l-79 -223v195h-72zM580 449v260l321 -160z M580 729v33l297 33l-78 -174zM580 782v136l116 303l193 -402zM639 0l129 53l-53 -53h-76zM721 1237l78 197l162 -140v-454l-48 -4zM827 1456l25 60h109v-173zM836 616l77 175l48 4v-242z" />
<glyph unicode="K" horiz-adv-x="1032" d="M76 0v672l67 8l269 -145l-232 -535h-104zM76 721v186l211 371l219 -504zM76 961v382l86 173h6l98 -222zM76 1417v99h49zM166 705l352 45l-47 -109h-14v-35l-23 -47zM233 1516h224v-291l-105 20zM258 0l37 84l162 10v-94h-199zM291 119l115 262l51 -2v-250zM350 1219 l107 -23v-182l51 172l307 -64l-278 -336zM399 408l58 129v-134zM500 641l41 92l323 -358l-264 18v189l-65 59h-35zM516 1212l64 211l331 -137l-51 -143zM557 745l424 -122v-13l-264 -41zM561 768l291 350l-88 -250l217 -184v-37zM590 1460l18 56h385l-69 -193zM600 0v102 l381 21v-123h-381zM600 137v232l268 -21l113 -123v-65zM745 549l236 37v-295z" />
<glyph unicode="L" horiz-adv-x="880" d="M76 0v51l49 -51h-49zM76 88v473l178 -336l-74 -225h-20zM76 612v27l360 98l-157 -491zM76 668v28l317 342l47 -272zM76 737v574l133 205h131l47 -439zM76 1356v160h102zM236 0l108 338l115 16v-22h362l17 -17v-53l-424 -262h-178zM344 367l115 354v-336zM383 1516h76 v-693h-2zM479 0l359 221v-221h-359z" />
<glyph unicode="M" horiz-adv-x="1345" d="M76 0v78l59 -78h-59zM76 147v201l364 225v-573h-252zM76 424v471l30 -10l252 -287zM76 956v375l272 185h62l168 -324l-254 -303zM76 1380v136h198zM147 891l500 -133l-155 -96l-52 92v-123l-43 -27zM348 864l246 293l70 -137l-2 -242zM504 635l158 98l-52 -289zM627 414 l57 325l188 -43l-196 -364zM688 782v254l82 156l279 -250zM696 762l406 180l-152 -237l-45 8v41l-20 -35zM791 1229l147 287h223l111 -86v-363l-203 -90zM905 0v45l367 238v-283h-367zM905 84v412l180 129l187 -43v-258zM905 532v156l164 -39zM987 709l150 237l135 62v-367z M1217 1516h55v-41z" />
<glyph unicode="N" horiz-adv-x="1101" d="M76 0v147l10 15l39 -162h-49zM76 231v756l252 -444zM76 1036v6l534 -53l-73 -213zM76 1069v223l383 138l203 -306l-44 -112zM76 1331v185h334l30 -56zM104 999l424 -239l-59 -74l-29 55v-90l-82 -102zM115 207l233 293l41 -78l-192 -422h-33zM254 0l27 61l159 41v-102 h-186zM276 90l142 311h22v-268zM373 524l67 94v-98l-30 -67zM414 426l26 53v-53h-26zM479 668l62 73l-47 -102zM504 621l53 116l326 -295l-279 -10zM573 786l60 170q6 27 29 86l129 271l233 -334zM582 756l444 192v-153l-129 -324zM616 410l271 8l139 -123v-10l-364 -95v134 zM662 0v160l364 94v-254h-364zM662 1139v377h163l-159 -377h-4zM799 1335l28 80l199 -162v-229zM852 1442l29 74h145v-218zM926 440l100 265v-353z" />
<glyph unicode="O" horiz-adv-x="1069" d="M70 293v53l405 -346h-104zM70 379v137l86 43l297 -211v-12h14l172 -123l53 -213h-153zM70 586v641l86 84l118 -193l19 -430zM180 575l273 125v-319zM190 1343l142 138l256 35l-31 -330h-104v-121l-99 12zM307 1108l146 -231v-140l-125 -57zM362 1044l91 -12v-131z M514 336h102v31l31 -125zM590 1186l18 178l391 -406v-32l-383 -121v381h-26zM616 539v166l261 -156zM616 721v49l261 80l122 -334v-22zM618 510l279 12l102 -59v-170l-264 -256zM627 1382l12 134h29q154 -94 331 -289v-232zM905 848l94 29v-279z" />
<glyph unicode="P" horiz-adv-x="1024" d="M76 0v129l65 -129h-65zM76 193v540l338 -241l-123 -492h-117zM76 766v72l418 -84l-60 -242zM76 885v631h262l39 -158l-238 -486zM168 848l213 479q25 -88 47 -176q29 -111 29 -176v-160h35l8 -33zM352 0l70 291l35 16v-307h-105zM381 1516h242q41 -10 92 -25q6 -2 14 -4 l229 -187v-137l-378 -98v117h-123v-11zM420 336l37 147v-131zM459 489l57 244l100 -244h-157zM520 815h47l-39 -37zM537 748l376 38q-53 -82 -108 -161q-92 -135 -111 -136h-53zM541 774l381 342l-166 -321zM580 827v207l311 84zM791 811l167 319v-301zM819 594l123 194h16 v-81z" />
<glyph unicode="Q" horiz-adv-x="1052" d="M70 217v336l82 22l522 -487l-4 -88h-355zM70 596v94l53 -82zM70 756v104l381 -151v-45l-301 -48zM70 889v29l381 163v-344zM70 950v271l548 295h115l37 -33l-82 -269l-90 -38v6h-147v-70zM70 1255v45l245 216h240zM188 580l263 55v-285zM463 336h135v61l72 -161l4 -99z M598 586v18.5v38.5l379 -172v-92l-266 -123zM598 676v8l336 311l-68 -442zM598 715v108l160 459h8l8 -403zM598 901v242l90 45l-86 -287h-4zM713 -18v233l264 129v-72l-82 -100l170 -117l-23 -26l-290 -86zM782 -86l215 61l-127 -149zM795 909v488l20 47l162 -144v-223z M903 553l68 442l6 6v-481z" />
<glyph unicode="R" horiz-adv-x="1032" d="M76 0v94l41 -94h-41zM76 168v328l248 -234l-91 -262h-86zM76 532v148l424 57l-39 -114h-4v-2q0 -31 -115 -338zM76 729v442l297 345h131v-334h-47v-199l-166 -225zM76 1217v159l129 140h127zM76 1415v101h96zM295 0l72 203l90 47v-250h-162zM311 737l146 197v-19h63v-149 zM358 238l99 282v-231zM492 623l36 106l207 -295l-135 -72v261h-108zM547 780v135h53v97l358 67v-35zM547 1182v334h176l235 -207v-201l-358 -68v142h-53zM553 743l428 -129v-51l-268 -47zM563 764l189 127l65 -193zM600 0v324l143 73l238 -342v-55h-381zM741 496l240 41 v-385zM791 897l167 107v-105l-124 -113zM840 768l129 -119l-105 41z" />
<glyph unicode="S" horiz-adv-x="1056" d="M76 221v125l96 92l285 11v-113h143v141l246 19l135 -95v-180l-57 -51l-785 -6zM76 406v90h112zM76 831v349l145 -150l-43 -289zM76 1257v41l751 111l50 -41l-226 -354h-51v168h-143v-125l-295 98zM123 1343l194 173h390l88 -76zM168 139l729 4l-156 -141h-96h-63 q-43 -2 -62 -2h-203zM176 1130l281 -100v-86l161 -10l-98 -156zM190 461l35 35h232v-23zM209 717l35 284l264 -235l-275 -72zM246 682l266 68l-180 -144zM356 602l172 139l316 -221l-244 -16v76zM553 774l98 156l68 -4l133 -119zM557 750l324 32l32 -30v-248zM705 1014 l98 153l78 -153h-176zM831 1180l93 147l28 -27v-286h-34zM934 735l47 -43v-243l-35 34z" />
<glyph unicode="T" horiz-adv-x="897" d="M33 1182v14l155 320h41l133 -537l-104 -213v416h-225zM33 1272v244h119zM258 0v496l139 10l-41 -506h-98zM258 520v131l172 90l-16 -209zM258 678v29l129 264l45 -207zM291 1516h135l-115 -74zM309 1405l170 111h189l-74 -242l-258 24zM332 1270l258 -29l-141 -448z M391 0l23 270l90 -57l22 -213h-135zM414 303l35 389h2l53 -446zM469 739l172 6v-102l-145 -201zM471 766l78 254l92 -55v-199h-170zM514 422l127 172v-594h-80zM569 1040l150 476h53l92 -164v-170h-223v-187zM815 1516h49v-89z" />
<glyph unicode="U" horiz-adv-x="1056" d="M76 221v320l219 90l90 -373l-61 -258h-7zM76 588v373l381 -185v-35zM76 1016v338l381 100v-219l-355 -231zM76 1376v140h381v-37zM119 979l338 221v-385zM315 655l142 58v-219q-27 -76 -56 -162zM373 0l49 209l135 127h43v41l211 205l170 -84v-273l-463 -225h-145z M424 254v47q14 55 33 121v-86h59zM600 418v284l199 -96zM600 731v27l293 37l33 -222zM600 778v303h14l162 -280zM600 1102v192l64 37l-50 -229h-14zM600 1327v189h113l-43 -152zM614 0l271 133l-146 -133h-125zM647 1102l107 414h227v-668l-178 -23zM926 795l55 4v-238 l-23 8z" />
<glyph unicode="V" horiz-adv-x="1071" d="M-6 1516h395l53 -390l-196 58l-242 248zM14 1393l195 -224l-90 -211l-33 17zM94 918l156 -66l242 -535l-7 -225l-325 432zM145 934l84 196l254 -319l4 -25zM172 463l305 -400v-63h-227zM242 1147l204 -60l33 -239zM266 858l226 -96q29 -207 28 -207l-16 -207zM518 4 l4 119l96 57l29 -180h-127zM520 158l19 397h14l65 -342zM567 586l15 155l315 -4l-258 -469zM586 766l4 31l172 178l201 -148l-13 -65zM598 848l25 188l120 -37zM627 1071l59 445h391l-28 -168l-299 -312zM651 242l273 471h18l-117 -713h-135zM786 987l246 254l-65 -385z" />
<glyph unicode="W" horiz-adv-x="1384" d="M76 -2v313l368 -250l-34 -63h-334zM76 352v252l231 43l266 -352l-110 -201zM76 676v622l96 213l166 -262l-162 -553zM76 1384v129h55zM207 684l162 553l71 -115v-393zM262 1513h76l-55 -34zM295 1430l127 83h18v-313zM328 668l350 65l-6 -258l-84 -151zM451 729l108 207 l105 -166zM571 961l62 116l106 13l-51 -312zM655 1120l37 70l33 -64zM696 500l6 237l302 -110l-242 -242zM715 782l47 275l102 -197zM717 762l155 82l72 -135v172l238 123l-211 -332zM780 348l248 246l281 -102v-394l-131 -100h-203zM944 903v273l328 -103zM944 1210v303h86 l279 -153v-250l-17 -8zM1016 672l213 334l80 43v-480zM1114 1513h195v-106zM1249 -2l60 47v-47h-60z" />
<glyph unicode="X" horiz-adv-x="1038" d="M-10 0l104 276l182 207l431 29l215 -221l82 -211l-402 -27l-100 293l-107 -346h-405zM-10 1516h403l-295 -265zM115 1217l297 270l63 -189l-266 -311zM119 352l84 209l47 -45zM215 594l72 188l196 -28l-204 -213zM221 963l262 311l27 -74l39 148l37 32l-86 -598l-219 33z M317 520l195 221l172 -200zM524 791l86 471l183 -64zM541 741l227 -55l129 -334l-2 -2zM545 768l272 393l27 -43l-117 -325l31 -78zM555 1382l37 134h20l-20 -107zM608 33l406 20l20 -53h-413zM616 1300l31 216h25l223 -142l-82 -155zM733 1516h254l-61 -134zM836 1186 l75 174l9 -6l-64 -203z" />
<glyph unicode="Y" horiz-adv-x="962" d="M-25 1516h408l10 -41l-356 -127zM51 1303l355 124l65 -282l-18 -62l-293 -61l-10 6zM166 983l289 -223l-197 -35zM172 995l285 60l10 -277zM268 696l199 43l82 -409l-260 170v131zM289 0v459l268 -168l49 -291h-317zM477 1073q20 74 43 160l252 -315l-6 -17l-277 -119z M500 741l188 -61l-16 -49l2 -131l-119 -27zM512 760l242 104l-60 -164zM528 1268l62 248h67l256 -197l-131 -371zM573 442l101 25v-467h-27zM727 1516h258l-55 -156z" />
<glyph unicode="Z" horiz-adv-x="995" d="M18 295l142 262l139 -78l-193 -329zM106 1182v112l416 222h223l35 -43l-41 -87l-407 -204h-226zM106 1346v170h345zM129 115l143 250l289 143l-88 -172h412v-193l-512 -143h-164zM170 580l78 143l211 25l-137 -256zM262 750l49 96l150 -78zM297 410l186 329l144 -104 l-39 -74zM326 872l166 310h-82l309 155l-242 -553zM469 0l416 109v-109h-416zM504 778l244 541l77 -299l-104 -201zM512 752l193 34l-66 -127zM772 1350l10 22l152 -143l-90 -172zM791 1386l20 50l152 -148l-13 -22z" />
<glyph unicode="[" horiz-adv-x="751" d="M133 127l293 -61l29 -279l-322 49v291zM133 164v252l248 301l47 -492v-123zM133 -203l141 -22h-141v22zM133 496v147l236 98l-207 -249zM133 668v338l232 -242zM133 1055v196l281 129l-33 -585zM133 1290v320l219 131h66l-17 -328zM133 1647v94h154zM410 737h18v-200z M414 774l14 273v-271zM467 1456l10 172l176 -172h-186zM500 61h157v-229l-49 -57h-82zM500 1651l4 90h153v-242z" />
<glyph unicode="\" horiz-adv-x="565" d="M35 1511h233l31 -184l-240 41zM66 1331l241 -41l49 -291l-188 37q-94 168 -102 295zM117 1042l166 -364l-113 67zM156 1012l204 -39l41 -242l-94 -51zM174 717l94 -53l-75 -46zM201 578l88 51l137 -580l-152 98zM283 113l131 -88l49 -199l-144 76zM315 639l115 -70 l37 -204l-82 -19zM317 659l89 50l20 -115zM326 -137l108 -58h-98zM403 315l68 17l92 -527h-39z" />
<glyph unicode="]" horiz-adv-x="751" d="M94 61h103l-50 -258l-53 66v192zM94 -201l21 -24h-21v24zM94 1456v117l309 168h115l-84 -414l-110 -51v180h-230zM94 1624v117h213zM205 -225l55 286h64v211l294 121v-303l-319 -315h-94zM324 303v160q0 6 6 41q16 78 45 233l243 -65v-246zM324 655v66l12 8zM324 754v16 l12 -8zM324 803v434l122 57l-102 -508zM340 -225l278 274v-274h-278zM373 788l129 637l116 -249v-271zM387 760l231 112v-174zM524 1450l21 102l73 -39v-268zM567 1577l35 164h16v-193z" />
<glyph unicode="^" horiz-adv-x="2209" d="M399 926l35 41l41 -41h-76zM455 987l28 37l320 94l31 -90l-107 -102h-209zM532 1077l166 185h7l-148 -179zM582 1085l149 177l322 -25l-13 -12zM725 1292l201 226l-86 -236zM819 1137l189 55l-156 -145zM860 1270l103 280h20l102 -282l-16 -15zM1008 1550l301 -67l80 -86 l-259 -133l-26 22zM1114 1550h135l33 -34zM1143 1251l258 131l8 -10l-104 -233q-127 59 -162 112zM1268 1130l10 -4l-4 -2zM1303 1098l311 -172h-131zM1335 1135l95 213l380 -422h-94z" />
<glyph unicode="_" horiz-adv-x="1136" d="M0 -295l18 27h256l-20 -78l-254 31v20zM0 -369l82 -8l131 -155h-213v163zM96 -369l236 -28l69 -135h-168zM274 -356l23 88h166l86 -121zM340 -389l221 -25v-118h-143zM481 -268h125l-41 -117zM578 -412l290 -100l-43 -20h-247v120zM584 -385l39 117h245l31 -31zM586 -403 l147 41l221 -168zM754 -362l307 83l37 -253h-121q-23 16 -68 51q-51 41 -155 119zM864 -532l13 6l16 -6h-29zM895 -268h84l-66 -19zM1090 -279q16 6 32 11h15v-264h-11z" />
<glyph unicode="`" horiz-adv-x="1136" d="M152 1917h36l103 -68l-12 -34zM231 1917h168l-63 -70zM291 1804l14 43l154 -102l-70 -19zM342 1839l74 78h59l-8 -162zM397 1720l68 17l-21 -56zM455 1673l22 64l207 -39l-178 -68zM475 1749l4 94l88 -55zM479 1745l107 45l37 -74zM487 1853l5 64h47l73 -100l-39 -17z M514 1626l174 66l19 -4l34 -50zM600 1790l23 10l67 -92l-51 12zM621 1569l129 59l43 -59h-172z" />
<glyph unicode="a" horiz-adv-x="1081" d="M76 0v125l383 -125h-383zM76 160v385l55 20l328 -293v-237zM76 606v420l100 -65l25 -306zM76 1071v10l383 -77v-181zM76 1106v108l59 62l739 67l-231 -356l-20 4v195h-164v-160zM154 590l305 119v-50h59l-31 -315h-28v-27zM170 1311l207 205h592l-92 -142zM217 958 l242 -155v-66l-213 -86zM516 344l29 315h78v41l290 -149l-299 -207h-98zM623 0v55l385 162v-217h-385zM623 98v221l303 209l82 -41v-227zM623 729v31l385 39v-66l-115 -143zM623 782v82l258 398l51 -447zM623 922v49l28 -6zM907 1280l101 154v-594l-50 -4zM926 586l82 100 v-141z" />
<glyph unicode="b" horiz-adv-x="1042" d="M76 0v72l49 71l674 -73l4 -9l-64 -61h-663zM76 178v735l215 -432zM76 975v37l428 -254l-189 -264zM76 1057v438l22 21h209l62 -238l-222 -264zM150 176l129 182l466 -125l60 -124zM168 985l223 264l33 -131l33 33v-225h18l37 -144zM281 381l247 348l50 -106h-121v-287 h143v237l150 -315zM373 1516h196l389 -299v-312l-358 80v197h-141zM508 926h92v30l338 -75l-82 -74l-309 -37zM545 741l272 -129l-110 -215l-107 226h-2zM553 754l227 28l181 -221zM616 1516h107l235 -207v-56zM737 365l111 217l133 -62v-299l-125 -112zM815 770v4h4z M819 766l162 -127v-70z" />
<glyph unicode="c" horiz-adv-x="1056" d="M68 227v244l505 -471h-260q-63 55 -127 109q-74 66 -118 118zM68 502v329l125 -30l256 -371v-94h63l111 -160l39 -176h-56zM68 868v58l100 -37l-41 -33zM68 963v172l690 358l67 -59l-190 -383l-35 -9v140h-151v-174l-316 -70zM68 1167v133l245 216l422 -5zM137 913 l312 70v-184zM160 846l37 31l252 -93v-6zM211 811l238 -53v-291zM539 336h61v35l39 -183zM600 483v66h195l186 -131v-201l-272 -217zM600 973v43l39 10l-25 -53h-14zM659 973l148 303l174 -62v-241h-322zM825 1309l43 90l113 -101v-47zM862 549h119v-82z" />
<glyph unicode="d" horiz-adv-x="1056" d="M76 0v252l669 -244l-6 -8h-663zM76 281v215l381 -29v-131h143v123l98 -8l207 -299l-135 -123zM76 524v15l381 174v-217zM76 573v41l24 -28zM76 668v127l381 -37v-21l-316 -145zM76 831v685h30l209 -404l-53 -299zM184 1473l797 -224v-98l-203 -156l-178 76v111h-143v-49 l-121 51zM184 1516h555l242 -216v-20l-788 223zM291 791l55 299l111 -209v-105zM332 1159l125 -53v-186zM600 483v140l100 -148zM600 664v53l168 -72l35 -272zM600 745v46l381 294v-503zM600 834v210l174 -75zM791 627l190 -82v-318l-39 -41l-119 170z" />
<glyph unicode="e" horiz-adv-x="872" d="M76 0v94l39 64l438 -158h-477zM76 193v284l141 -51zM76 510v100l342 131l-176 -290zM76 647v477l248 392h86q-14 -82 -33 -246l-12 -281l-199 -307zM76 1182v334h211zM129 188l88 148l240 53v-53h161l142 -336h-113zM184 668l193 274l41 -182zM215 365l223 368l51 -104 h-32v-209zM397 989l13 248l82 -55h-35v-240h161l-174 -160zM418 1276l24 186l367 -65v-215h-277zM444 1497v19h365v-80zM467 741l285 -20v-92h-232zM471 770l197 172h84v-190zM664 336h59l-33 -57zM700 256l48 80h61v-45l-78 -101zM743 160l66 86v-246z" />
<glyph unicode="f" horiz-adv-x="849" d="M76 0v80l381 -55v-25h-381zM76 123v201l194 215l187 -252v-219zM76 385v526l330 -159zM76 963v315l485 94l-49 -190h-55v-68l-219 -229zM76 1315v201h518l-29 -111zM254 860l203 213v-131h18l-43 -168zM281 565l151 168q25 -152 25 -151v-252zM444 774l64 168h86l18 -49z M451 737l219 -108h-195zM455 762l274 180h8v-313h-16zM565 1182l86 334h144v-334h-230zM623 942h67l-53 -35z" />
<glyph unicode="g" horiz-adv-x="1056" d="M68 217v164l223 -336l-4 -20zM68 449v370l149 -28l217 -271l-115 -448zM68 893v407l182 162l119 -342zM70 856l321 242l58 -172v-142zM238 803l211 -39v-223zM291 1497l22 19h162l334 -134l-51 -104l-158 -104v8h-151v-164zM334 0l82 254l90 82h94v86l55 53l201 -364 l-125 -111h-397zM410 287l39 151v-102h14zM524 496v237l125 -225l-49 -47v35h-76zM524 774v45h23zM541 770l24 49h262l41 -74zM543 748l354 -27l-209 -238zM586 1516h145l88 -76l-8 -15zM600 948v195l158 106l-148 -301h-10zM631 948l65 131l66 -131h-131zM715 463l207 239 l59 -4v-481l-88 -76zM719 1090l121 245l141 -194v-193h-190zM856 819h125v-69l-92 8zM877 1358l12 22l92 -80v-88z" />
<glyph unicode="h" horiz-adv-x="1069" d="M76 0v53l43 -53h-43zM76 102v441l166 69l131 -170l-197 -442h-24zM76 586v217q8 20 18 55q35 111 94 334l316 -426zM76 899v447l88 -127zM76 1384v132h383v-117zM127 1346l332 14v-203l-246 72zM217 1204l242 -69v-185h143l-74 -166zM233 0l119 266l107 62v-328h-226z M266 639l254 106l-49 -110h-12v-29l-62 -139zM342 299l117 262v-196zM492 635l45 100l258 -178l-185 -106v184h-118zM557 770l164 352l272 -278v-68zM563 754l430 4v-66l-190 -106zM610 0v414l195 110l188 -131v-307l-293 -86h-90zM610 965v125l49 -17zM610 1114v258l181 12 l-132 -286zM610 1411v105h219l-41 -91zM743 1139l134 293l116 -150v-401zM811 0v4l182 41v-45h-182zM840 575l153 84v-192zM899 1446l31 70h63v-189z" />
<glyph unicode="i" horiz-adv-x="546" d="M82 0v145l229 -145h-229zM82 188v334h246l137 -391v-131h-84zM82 551v72l184 122l62 -194h-246zM82 639v154l172 -39zM82 815v246l168 -285zM82 1130v123l383 -147v-145l-334 83zM82 1282v234h383v-381zM127 1030l338 -88v-102l-184 -60zM293 735l172 -45v-22l-103 -105z M299 758l166 57v-94zM369 539l96 88v-402l-4 2z" />
<glyph unicode="j" horiz-adv-x="1036" d="M51 217v111l123 -222zM51 381v168h264l103 -213l-45 -336h-80l-55 43zM264 1182v334h520l-106 -269l-309 -65h-105zM344 549h78v-160zM438 0l45 336h97v82l338 102l43 -20v-264l-136 -130l-264 -106h-123zM508 1182v4l151 24l-79 -223v195h-72zM580 449v260l321 -160z M580 729v33l297 33l-78 -174zM580 782v136l116 303l193 -402zM639 0l129 53l-53 -53h-76zM721 1237l78 197l162 -140v-454l-48 -4zM827 1456l25 60h109v-173zM836 616l77 175l48 4v-242z" />
<glyph unicode="k" horiz-adv-x="1032" d="M76 0v672l67 8l269 -145l-232 -535h-104zM76 721v186l211 371l219 -504zM76 961v382l86 173h6l98 -222zM76 1417v99h49zM166 705l352 45l-47 -109h-14v-35l-23 -47zM233 1516h224v-291l-105 20zM258 0l37 84l162 10v-94h-199zM291 119l115 262l51 -2v-250zM350 1219 l107 -23v-182l51 172l307 -64l-278 -336zM399 408l58 129v-134zM500 641l41 92l323 -358l-264 18v189l-65 59h-35zM516 1212l64 211l331 -137l-51 -143zM557 745l424 -122v-13l-264 -41zM561 768l291 350l-88 -250l217 -184v-37zM590 1460l18 56h385l-69 -193zM600 0v102 l381 21v-123h-381zM600 137v232l268 -21l113 -123v-65zM745 549l236 37v-295z" />
<glyph unicode="l" horiz-adv-x="880" d="M76 0v51l49 -51h-49zM76 88v473l178 -336l-74 -225h-20zM76 612v27l360 98l-157 -491zM76 668v28l317 342l47 -272zM76 737v574l133 205h131l47 -439zM76 1356v160h102zM236 0l108 338l115 16v-22h362l17 -17v-53l-424 -262h-178zM344 367l115 354v-336zM383 1516h76 v-693h-2zM479 0l359 221v-221h-359z" />
<glyph unicode="m" horiz-adv-x="1345" d="M76 0v78l59 -78h-59zM76 147v201l364 225v-573h-252zM76 424v471l30 -10l252 -287zM76 956v375l272 185h62l168 -324l-254 -303zM76 1380v136h198zM147 891l500 -133l-155 -96l-52 92v-123l-43 -27zM348 864l246 293l70 -137l-2 -242zM504 635l158 98l-52 -289zM627 414 l57 325l188 -43l-196 -364zM688 782v254l82 156l279 -250zM696 762l406 180l-152 -237l-45 8v41l-20 -35zM791 1229l147 287h223l111 -86v-363l-203 -90zM905 0v45l367 238v-283h-367zM905 84v412l180 129l187 -43v-258zM905 532v156l164 -39zM987 709l150 237l135 62v-367z M1217 1516h55v-41z" />
<glyph unicode="n" horiz-adv-x="1101" d="M76 0v147l10 15l39 -162h-49zM76 231v756l252 -444zM76 1036v6l534 -53l-73 -213zM76 1069v223l383 138l203 -306l-44 -112zM76 1331v185h334l30 -56zM104 999l424 -239l-59 -74l-29 55v-90l-82 -102zM115 207l233 293l41 -78l-192 -422h-33zM254 0l27 61l159 41v-102 h-186zM276 90l142 311h22v-268zM373 524l67 94v-98l-30 -67zM414 426l26 53v-53h-26zM479 668l62 73l-47 -102zM504 621l53 116l326 -295l-279 -10zM573 786l60 170q6 27 29 86l129 271l233 -334zM582 756l444 192v-153l-129 -324zM616 410l271 8l139 -123v-10l-364 -95v134 zM662 0v160l364 94v-254h-364zM662 1139v377h163l-159 -377h-4zM799 1335l28 80l199 -162v-229zM852 1442l29 74h145v-218zM926 440l100 265v-353z" />
<glyph unicode="o" horiz-adv-x="1069" d="M70 293v53l405 -346h-104zM70 379v137l86 43l297 -211v-12h14l172 -123l53 -213h-153zM70 586v641l86 84l118 -193l19 -430zM180 575l273 125v-319zM190 1343l142 138l256 35l-31 -330h-104v-121l-99 12zM307 1108l146 -231v-140l-125 -57zM362 1044l91 -12v-131z M514 336h102v31l31 -125zM590 1186l18 178l391 -406v-32l-383 -121v381h-26zM616 539v166l261 -156zM616 721v49l261 80l122 -334v-22zM618 510l279 12l102 -59v-170l-264 -256zM627 1382l12 134h29q154 -94 331 -289v-232zM905 848l94 29v-279z" />
<glyph unicode="p" horiz-adv-x="1024" d="M76 0v129l65 -129h-65zM76 193v540l338 -241l-123 -492h-117zM76 766v72l418 -84l-60 -242zM76 885v631h262l39 -158l-238 -486zM168 848l213 479q25 -88 47 -176q29 -111 29 -176v-160h35l8 -33zM352 0l70 291l35 16v-307h-105zM381 1516h242q41 -10 92 -25q6 -2 14 -4 l229 -187v-137l-378 -98v117h-123v-11zM420 336l37 147v-131zM459 489l57 244l100 -244h-157zM520 815h47l-39 -37zM537 748l376 38q-53 -82 -108 -161q-92 -135 -111 -136h-53zM541 774l381 342l-166 -321zM580 827v207l311 84zM791 811l167 319v-301zM819 594l123 194h16 v-81z" />
<glyph unicode="q" horiz-adv-x="1052" d="M70 217v336l82 22l522 -487l-4 -88h-355zM70 596v94l53 -82zM70 756v104l381 -151v-45l-301 -48zM70 889v29l381 163v-344zM70 950v271l548 295h115l37 -33l-82 -269l-90 -38v6h-147v-70zM70 1255v45l245 216h240zM188 580l263 55v-285zM463 336h135v61l72 -161l4 -99z M598 586v18.5v38.5l379 -172v-92l-266 -123zM598 676v8l336 311l-68 -442zM598 715v108l160 459h8l8 -403zM598 901v242l90 45l-86 -287h-4zM713 -18v233l264 129v-72l-82 -100l170 -117l-23 -26l-290 -86zM782 -86l215 61l-127 -149zM795 909v488l20 47l162 -144v-223z M903 553l68 442l6 6v-481z" />
<glyph unicode="r" horiz-adv-x="1032" d="M76 0v94l41 -94h-41zM76 168v328l248 -234l-91 -262h-86zM76 532v148l424 57l-39 -114h-4v-2q0 -31 -115 -338zM76 729v442l297 345h131v-334h-47v-199l-166 -225zM76 1217v159l129 140h127zM76 1415v101h96zM295 0l72 203l90 47v-250h-162zM311 737l146 197v-19h63v-149 zM358 238l99 282v-231zM492 623l36 106l207 -295l-135 -72v261h-108zM547 780v135h53v97l358 67v-35zM547 1182v334h176l235 -207v-201l-358 -68v142h-53zM553 743l428 -129v-51l-268 -47zM563 764l189 127l65 -193zM600 0v324l143 73l238 -342v-55h-381zM741 496l240 41 v-385zM791 897l167 107v-105l-124 -113zM840 768l129 -119l-105 41z" />
<glyph unicode="s" horiz-adv-x="1056" d="M76 221v125l96 92l285 11v-113h143v141l246 19l135 -95v-180l-57 -51l-785 -6zM76 406v90h112zM76 831v349l145 -150l-43 -289zM76 1257v41l751 111l50 -41l-226 -354h-51v168h-143v-125l-295 98zM123 1343l194 173h390l88 -76zM168 139l729 4l-156 -141h-96h-63 q-43 -2 -62 -2h-203zM176 1130l281 -100v-86l161 -10l-98 -156zM190 461l35 35h232v-23zM209 717l35 284l264 -235l-275 -72zM246 682l266 68l-180 -144zM356 602l172 139l316 -221l-244 -16v76zM553 774l98 156l68 -4l133 -119zM557 750l324 32l32 -30v-248zM705 1014 l98 153l78 -153h-176zM831 1180l93 147l28 -27v-286h-34zM934 735l47 -43v-243l-35 34z" />
<glyph unicode="t" horiz-adv-x="897" d="M33 1182v14l155 320h41l133 -537l-104 -213v416h-225zM33 1272v244h119zM258 0v496l139 10l-41 -506h-98zM258 520v131l172 90l-16 -209zM258 678v29l129 264l45 -207zM291 1516h135l-115 -74zM309 1405l170 111h189l-74 -242l-258 24zM332 1270l258 -29l-141 -448z M391 0l23 270l90 -57l22 -213h-135zM414 303l35 389h2l53 -446zM469 739l172 6v-102l-145 -201zM471 766l78 254l92 -55v-199h-170zM514 422l127 172v-594h-80zM569 1040l150 476h53l92 -164v-170h-223v-187zM815 1516h49v-89z" />
<glyph unicode="u" horiz-adv-x="1056" d="M76 221v320l219 90l90 -373l-61 -258h-7zM76 588v373l381 -185v-35zM76 1016v338l381 100v-219l-355 -231zM76 1376v140h381v-37zM119 979l338 221v-385zM315 655l142 58v-219q-27 -76 -56 -162zM373 0l49 209l135 127h43v41l211 205l170 -84v-273l-463 -225h-145z M424 254v47q14 55 33 121v-86h59zM600 418v284l199 -96zM600 731v27l293 37l33 -222zM600 778v303h14l162 -280zM600 1102v192l64 37l-50 -229h-14zM600 1327v189h113l-43 -152zM614 0l271 133l-146 -133h-125zM647 1102l107 414h227v-668l-178 -23zM926 795l55 4v-238 l-23 8z" />
<glyph unicode="v" horiz-adv-x="1071" d="M-6 1516h395l53 -390l-196 58l-242 248zM14 1393l195 -224l-90 -211l-33 17zM94 918l156 -66l242 -535l-7 -225l-325 432zM145 934l84 196l254 -319l4 -25zM172 463l305 -400v-63h-227zM242 1147l204 -60l33 -239zM266 858l226 -96q29 -207 28 -207l-16 -207zM518 4 l4 119l96 57l29 -180h-127zM520 158l19 397h14l65 -342zM567 586l15 155l315 -4l-258 -469zM586 766l4 31l172 178l201 -148l-13 -65zM598 848l25 188l120 -37zM627 1071l59 445h391l-28 -168l-299 -312zM651 242l273 471h18l-117 -713h-135zM786 987l246 254l-65 -385z" />
<glyph unicode="w" horiz-adv-x="1384" d="M76 -2v313l368 -250l-34 -63h-334zM76 352v252l231 43l266 -352l-110 -201zM76 676v622l96 213l166 -262l-162 -553zM76 1384v129h55zM207 684l162 553l71 -115v-393zM262 1513h76l-55 -34zM295 1430l127 83h18v-313zM328 668l350 65l-6 -258l-84 -151zM451 729l108 207 l105 -166zM571 961l62 116l106 13l-51 -312zM655 1120l37 70l33 -64zM696 500l6 237l302 -110l-242 -242zM715 782l47 275l102 -197zM717 762l155 82l72 -135v172l238 123l-211 -332zM780 348l248 246l281 -102v-394l-131 -100h-203zM944 903v273l328 -103zM944 1210v303h86 l279 -153v-250l-17 -8zM1016 672l213 334l80 43v-480zM1114 1513h195v-106zM1249 -2l60 47v-47h-60z" />
<glyph unicode="x" horiz-adv-x="1038" d="M-10 0l104 276l182 207l431 29l215 -221l82 -211l-402 -27l-100 293l-107 -346h-405zM-10 1516h403l-295 -265zM115 1217l297 270l63 -189l-266 -311zM119 352l84 209l47 -45zM215 594l72 188l196 -28l-204 -213zM221 963l262 311l27 -74l39 148l37 32l-86 -598l-219 33z M317 520l195 221l172 -200zM524 791l86 471l183 -64zM541 741l227 -55l129 -334l-2 -2zM545 768l272 393l27 -43l-117 -325l31 -78zM555 1382l37 134h20l-20 -107zM608 33l406 20l20 -53h-413zM616 1300l31 216h25l223 -142l-82 -155zM733 1516h254l-61 -134zM836 1186 l75 174l9 -6l-64 -203z" />
<glyph unicode="y" horiz-adv-x="962" d="M-25 1516h408l10 -41l-356 -127zM51 1303l355 124l65 -282l-18 -62l-293 -61l-10 6zM166 983l289 -223l-197 -35zM172 995l285 60l10 -277zM268 696l199 43l82 -409l-260 170v131zM289 0v459l268 -168l49 -291h-317zM477 1073q20 74 43 160l252 -315l-6 -17l-277 -119z M500 741l188 -61l-16 -49l2 -131l-119 -27zM512 760l242 104l-60 -164zM528 1268l62 248h67l256 -197l-131 -371zM573 442l101 25v-467h-27zM727 1516h258l-55 -156z" />
<glyph unicode="z" horiz-adv-x="995" d="M18 295l142 262l139 -78l-193 -329zM106 1182v112l416 222h223l35 -43l-41 -87l-407 -204h-226zM106 1346v170h345zM129 115l143 250l289 143l-88 -172h412v-193l-512 -143h-164zM170 580l78 143l211 25l-137 -256zM262 750l49 96l150 -78zM297 410l186 329l144 -104 l-39 -74zM326 872l166 310h-82l309 155l-242 -553zM469 0l416 109v-109h-416zM504 778l244 541l77 -299l-104 -201zM512 752l193 34l-66 -127zM772 1350l10 22l152 -143l-90 -172zM791 1386l20 50l152 -148l-13 -22z" />
<glyph unicode="{" horiz-adv-x="778" d="M82 750l278 -9l-69 -467l-111 160v219zM94 778l74 72l178 -80zM180 18v359l86 -123l-41 -279zM180 866v113l297 127v-131l-104 -197zM180 1014v452l504 136v-146h-207v-313zM190 1507l250 234h244v-103zM295 -4l67 450l115 -4v-381h207v-8zM301 -98l6 49l377 53v-229 h-252zM348 477l41 260l88 -82v-182zM401 774l76 144v-82l-55 -54z" />
<glyph unicode="|" horiz-adv-x="1136" d="M430 184l70 -8l-35 -401h-35v409zM430 221v336l123 164l-41 -506zM430 590v278l127 -112zM430 889v90l72 43l57 -248zM430 1024v246l49 -215zM430 1606v135h279v-283l-258 64q-20 72 -21 84zM438 1491l271 -66v-360l-177 25zM516 1065l193 -29v-198l-127 -60zM524 -98 l37 428l148 88v-373zM541 -225l8 90l160 123v-213h-168zM549 356l33 381l127 -57v-231zM602 754l107 51v-100z" />
<glyph unicode="}" horiz-adv-x="786" d="M94 45v16h6zM94 -127l74 188h133v258l297 46v-299l-504 -234v41zM94 -209l504 238v-11l-252 -243h-252v16zM94 1456v66l438 39l13 -15l-21 -90l-223 -170v170h-207zM94 1561v180h244l158 -148zM301 348v96l115 289l182 -82v-258zM301 532v144l80 57zM301 836v10l47 -55z M301 901v348l236 176l-144 -630zM414 774l82 367l102 -125v-156l41 -37zM430 754l225 49l50 -45l-91 -86zM520 1163l76 336l2 -2v-428z" />
<glyph unicode="~" horiz-adv-x="1851" d="M186 387v213h64l41 -145q-35 -23 -105 -68zM186 672v14q80 55 191 102q131 55 205 56h77l-172 -176zM283 618l397 -4l4 -43q-35 4 -43 4q-158 0 -317 -100zM516 655l176 185q20 0 60 -11q51 -12 61 -14l92 -164zM705 631h206l-53 -96q-94 27 -149 34zM844 811 q33 -6 98 -29l-20 -106zM877 530l45 84l69 -122q-39 12 -114 38zM942 659l21 117q72 -20 217 -59zM946 631q119 29 357 82l-82 -271q-90 2 -189 35zM1243 442l80 265l193 47l-68 -271q-104 -37 -205 -41zM1475 494l61 251l131 31v-180q-59 -39 -192 -102zM1614 860l53 35 v-23z" />
<glyph unicode="&#xa9;" horiz-adv-x="1654" d="M129 14v1413l203 195h991l203 -195v-1413l-203 -194h-991zM375 111l57 -56h791l57 56v1220l-57 55h-791l-57 -55v-1220zM479 391v660l226 217h245l226 -217v-230h-297v189h-103v-578h103v197h297v-238l-226 -217h-245z" />
<glyph unicode="&#xab;" horiz-adv-x="925" d="M76 524v228l174 -31l8 -160l-139 -100zM76 795v67l117 178l204 99l43 -23l-51 -207l-106 -151zM135 434l164 115l111 -143l-29 -160l-88 -49zM215 1075l78 119l80 -43zM274 725l66 -12l-4 -21l20 -74l-73 -53zM295 743l82 113l-31 -123zM315 573l45 33l46 -147zM414 266 q0 14 32 49l9 -28zM414 303l12 78l12 -45zM496 524v113l73 -145l-28 -35zM496 668v28l127 58l-33 -271zM496 713v45q0 4 32 155l15 21l162 -125zM496 823v39l12 19zM551 440l22 27l132 -258zM557 958l156 236l147 -78l-63 -252l-76 -37zM608 479l33 271l145 65l-30 -123 l67 -231l-96 -215zM754 242l82 180l38 -135l-112 -62z" />
<glyph unicode="&#xad;" horiz-adv-x="692" d="M94 569v54l113 26l102 -88h-198zM94 647v174h33l-21 -170zM115 647l20 174h27l47 -35l-25 -122zM193 662l24 122l119 -90zM193 821h174l-101 -55zM213 655l127 29l14 -123h-28zM268 758l117 63h37l-76 -121zM348 684l29 -66l-8 -57h-9zM352 690l172 53l-133 -137z M352 696l49 82l58 -49zM373 561l8 43l18 -43h-26zM397 602l133 139l56 17l-90 -197h-80zM414 786l20 35h164v-43l-129 -41zM504 561q45 94 94 193v-193h-94z" />
<glyph unicode="&#xae;" horiz-adv-x="1654" d="M129 14v1413l203 195h991l203 -195v-1413l-203 -194h-991zM375 111l57 -56h791l57 56v1220l-57 55h-791l-57 -55v-1220zM498 174v1094h475l170 -156v-295l-86 -92l104 -88v-463h-291v438h-84v-438h-288zM786 840h84v172h-84v-172z" />
<glyph unicode="&#xbb;" horiz-adv-x="925" d="M51 287l12 43l15 -23l-21 -24zM66 1116l53 31l104 -150l33 -284l-90 -4zM74 367l71 243l142 -73l-183 -213zM98 262l74 86l119 -33l-80 -118zM152 627l12 53l266 10l-123 -145zM166 1171l45 23l59 -88l-65 12zM182 373l248 286v-135l-123 -184zM201 1102l82 -15l61 -96 l-94 37zM242 1016l116 -45l72 -109v-117zM244 983l186 -266v-12l-154 -5zM469 287l61 209l191 53l110 -49l-98 -156q-68 -106 -108 -143zM485 1116l146 78l112 -170l-245 41zM502 1049l254 -45l92 -136l-92 -34l-224 84zM537 901l208 -82l-172 -63zM539 520l34 115l140 -64z M575 645l15 47l-12 43l69 27l86 -189zM676 762l174 63v-288l-86 36z" />
<glyph unicode="&#x401;" horiz-adv-x="872" d="M76 0v94l39 64l438 -158h-477zM76 193v284l141 -51zM76 510v100l342 131l-176 -290zM76 647v477l248 392h86q-14 -82 -33 -246l-12 -281l-199 -307zM76 1182v334h211zM129 188l88 148l240 53v-53h161l142 -336h-113zM129 1608v18l266 197v-215h-266zM129 1667v193h260z M184 668l193 274l41 -182zM215 365l223 368l51 -104h-32v-209zM397 989l13 248l82 -55h-35v-240h161l-174 -160zM418 1276l24 186l367 -65v-215h-277zM444 1497v19h365v-80zM467 741l285 -20v-92h-232zM471 770l197 172h84v-190zM492 1608l6 174l254 -144v-30h-260z M518 1812l2 48h232v-181zM664 336h59l-33 -57zM700 256l48 80h61v-45l-78 -101zM743 160l66 86v-246z" />
<glyph unicode="&#x410;" horiz-adv-x="1081" d="M76 0v125l383 -125h-383zM76 160v385l55 20l328 -293v-237zM76 606v420l100 -65l25 -306zM76 1071v10l383 -77v-181zM76 1106v108l59 62l739 67l-231 -356l-20 4v195h-164v-160zM154 590l305 119v-50h59l-31 -315h-28v-27zM170 1311l207 205h592l-92 -142zM217 958 l242 -155v-66l-213 -86zM516 344l29 315h78v41l290 -149l-299 -207h-98zM623 0v55l385 162v-217h-385zM623 98v221l303 209l82 -41v-227zM623 729v31l385 39v-66l-115 -143zM623 782v82l258 398l51 -447zM623 922v49l28 -6zM907 1280l101 154v-594l-50 -4zM926 586l82 100 v-141z" />
<glyph unicode="&#x411;" horiz-adv-x="1024" d="M76 0v299l610 -299h-610zM76 328v143l653 -238l72 -143l-88 -74zM76 496v65l432 172l20 -47h-71v-330zM76 600v313l418 -157zM76 930v53l301 70l127 -279zM76 1010v389l106 86l174 -412zM76 1440v76h102zM227 1516h684v-295l-669 254zM254 1444l643 -262h-440v-166h237 l101 -82l-86 -45l-263 98zM438 963l264 -99l-170 -96zM516 336h64v246l145 -312zM539 719l221 -346l-17 -82zM541 748l282 161l-168 -346zM680 549l168 340l110 -92v-582l-45 -35zM760 256l14 92l117 -186l-62 -45z" />
<glyph unicode="&#x412;" horiz-adv-x="1042" d="M76 0v72l49 71l674 -73l4 -9l-64 -61h-663zM76 178v735l215 -432zM76 975v37l428 -254l-189 -264zM76 1057v438l22 21h209l62 -238l-222 -264zM150 176l129 182l466 -125l60 -124zM168 985l223 264l33 -131l33 33v-225h18l37 -144zM281 381l247 348l50 -106h-121v-287 h143v237l150 -315zM373 1516h196l389 -299v-312l-358 80v197h-141zM508 926h92v30l338 -75l-82 -74l-309 -37zM545 741l272 -129l-110 -215l-107 226h-2zM553 754l227 28l181 -221zM616 1516h107l235 -207v-56zM737 365l111 217l133 -62v-299l-125 -112zM815 770v4h4z M819 766l162 -127v-70z" />
<glyph unicode="&#x413;" horiz-adv-x="833" d="M76 0v506l192 -213l-88 -293h-104zM76 561l342 176l-127 -418zM76 610v367l301 539h29v-275q-61 -184 -132 -395q-18 -53 -53 -162zM76 1032v484h268zM231 0l19 66l207 24v-90h-226zM236 674l180 524l10 -426zM250 102l24 86l183 156v-217zM276 213l154 514l27 -117v-241 zM438 1237l54 -55h-35v-391l-13 -9zM440 1272v121l355 -86v-125h-269zM444 1434v82h351v-173zM446 743h11v-43z" />
<glyph unicode="&#x414;" horiz-adv-x="1159" d="M25 -205v535h147v100l205 -78zM25 -295l192 291l602 278l316 -348v-221h-310v295h-491v-295h-309zM172 463v131l338 8v-61l-104 -166zM172 631v121l45 -121h-45zM172 827v119l338 -287v-36l-260 -5zM172 975v74l338 -37v-322zM172 1077v156l4 4l811 123v-168l-149 -188 l-203 22v156h-125v-142zM221 1282l234 234h532v-119zM256 63l254 412v-145h125v186l180 -201zM635 571v43l352 123v-119q0 -4 -8 -47q-20 -104 -64 -313zM635 637v33l178 223l117 -154zM635 721v278l203 -24zM852 918l135 172v-320l-20 -6zM954 252l33 162v-84h148v-277z " />
<glyph unicode="&#x415;" horiz-adv-x="872" d="M76 0v94l39 64l438 -158h-477zM76 193v284l141 -51zM76 510v100l342 131l-176 -290zM76 647v477l248 392h86q-14 -82 -33 -246l-12 -281l-199 -307zM76 1182v334h211zM129 188l88 148l240 53v-53h161l142 -336h-113zM184 668l193 274l41 -182zM215 365l223 368l51 -104 h-32v-209zM397 989l13 248l82 -55h-35v-240h161l-174 -160zM418 1276l24 186l367 -65v-215h-277zM444 1497v19h365v-80zM467 741l285 -20v-92h-232zM471 770l197 172h84v-190zM664 336h59l-33 -57zM700 256l48 80h61v-45l-78 -101zM743 160l66 86v-246z" />
<glyph unicode="&#x416;" horiz-adv-x="1509" d="M23 1518l120 -2l238 -312l49 -416l-242 27l66 53zM37 0v209l131 -209h-131zM37 295v389l113 98l182 -20l86 -279v-483h-193zM197 1516h213l69 -242l-168 92zM324 1327l168 -90l61 -213zM373 756l352 -15l-164 -331v231h-78l-59 -66zM416 1163l309 -389l-262 12zM557 1020 v180l178 -94l-2 -315zM557 1233l4 283h166l-4 -373zM561 0v29l375 24v-53h-375zM561 49v250l375 86v-295zM561 330v18l191 385l184 -151v-164zM762 774l4 307l393 -153zM766 756l291 112l-43 -227h-78v-27zM786 1114l5 402h145v-459zM946 1053l141 463h89l235 -168 l-151 -422zM1044 614l48 250l114 45l43 -14l-8 -27l219 -184v-123l-110 -282l-271 243v60zM1079 0v55l381 11v-66h-381zM1079 90v375l381 -340v-37zM1257 1516h216l-43 -121zM1378 252l82 207v-275z" />
<glyph unicode="&#x417;" horiz-adv-x="1042" d="M55 217v68l125 125l246 57v-131l-61 -230l-160 -24zM55 338v192h199zM55 1001v23l371 104v-127h-371zM55 1061v239l242 216h229l-20 -332h-80v-29zM199 440l90 90h137v-38zM229 59l129 15l-18 -74h-43zM362 639v162l113 -47zM362 836v90h134l-4 -146zM381 0l86 336h70 l290 -98l60 -86l-170 -152h-336zM381 623l115 114l-23 -114h-92zM496 623l22 106l297 -453l-231 72v275h-88zM522 772l4 154h58v86l297 -127zM530 745l256 80l43 -528zM539 1184l26 332h127l246 -216v-403l-354 147v140h-45zM813 834l107 36l-103 -92zM817 774l148 -106 v-447l-45 -39l-58 88z" />
<glyph unicode="&#x418;" horiz-adv-x="1052" d="M76 0v350l395 -211l-65 -139h-330zM76 393v379l100 27l428 -197l215 -602h-2l-180 96v400l-150 -320zM76 807v215l340 -84v-37zM76 1042v11l340 159v-254zM76 1090v426h340v-267zM209 811l207 66v-117l71 137l29 8l90 -274zM508 940l129 246v325l340 -319v-25zM551 895 l244 -303l-82 -178zM561 926l393 192l-176 -471zM637 0v53l121 -53h-121zM686 1516h291v-275zM737 373l82 178l158 -186v-365h-105zM805 639l172 463v-666z" />
<glyph unicode="&#x419;" horiz-adv-x="1052" d="M76 0v350l395 -211l-65 -139h-330zM76 393v379l100 27l428 -197l215 -602h-2l-180 96v400l-150 -320zM76 807v215l340 -84v-37zM76 1042v11l340 159v-254zM76 1090v426h340v-267zM209 811l207 66v-117l71 137l29 8l90 -274zM233 1743v96h175l-156 -115zM283 1694l196 145 l4 -283h-65zM508 940l129 246v325l340 -319v-25zM537 1556v50l51 -50h-51zM551 895l244 -303l-82 -178zM553 1640v109h4v90h268v-94l-186 -184zM561 926l393 192l-176 -471zM637 0v53l121 -53h-121zM686 1516h291v-275zM737 373l82 178l158 -186v-365h-105zM805 639l172 463 v-666z" />
<glyph unicode="&#x41a;" horiz-adv-x="1032" d="M76 0v672l67 8l269 -145l-232 -535h-104zM76 721v186l211 371l219 -504zM76 961v382l86 173h6l98 -222zM76 1417v99h49zM166 705l352 45l-47 -109h-14v-35l-23 -47zM233 1516h224v-291l-105 20zM258 0l37 84l162 10v-94h-199zM291 119l115 262l51 -2v-250zM350 1219 l107 -23v-182l51 172l307 -64l-278 -336zM399 408l58 129v-134zM500 641l41 92l323 -358l-264 18v189l-65 59h-35zM516 1212l64 211l331 -137l-51 -143zM557 745l424 -122v-13l-264 -41zM561 768l291 350l-88 -250l217 -184v-37zM590 1460l18 56h385l-69 -193zM600 0v102 l381 21v-123h-381zM600 137v232l268 -21l113 -123v-65zM745 549l236 37v-295z" />
<glyph unicode="&#x41b;" horiz-adv-x="1032" d="M-6 0v233l88 -233h-88zM-6 317v11h108v250l201 -201l-135 -377h-53zM102 614v181l347 -45q0 -2 -127 -355zM102 817v47l308 117l39 -174v-37zM102 899v358l185 189l98 -440zM209 0l164 418l76 2v-232l-211 -188h-29zM328 1489l28 27h336l-80 -252l-256 96zM356 1327 l254 -98l-35 -117v70h-126v-264zM381 440l68 185v-183zM575 0v135l381 191v-326h-381zM575 170v252l381 12v-74zM575 446v242l381 -221v-8zM575 709v49l232 16l78 -246zM575 778v275l7 14q10 31 26 92l113 -368zM637 1182l104 334h185l30 -46v-643l-206 -14zM848 762l108 8 v-270l-30 18z" />
<glyph unicode="&#x41c;" horiz-adv-x="1345" d="M76 0v78l59 -78h-59zM76 147v201l364 225v-573h-252zM76 424v471l30 -10l252 -287zM76 956v375l272 185h62l168 -324l-254 -303zM76 1380v136h198zM147 891l500 -133l-155 -96l-52 92v-123l-43 -27zM348 864l246 293l70 -137l-2 -242zM504 635l158 98l-52 -289zM627 414 l57 325l188 -43l-196 -364zM688 782v254l82 156l279 -250zM696 762l406 180l-152 -237l-45 8v41l-20 -35zM791 1229l147 287h223l111 -86v-363l-203 -90zM905 0v45l367 238v-283h-367zM905 84v412l180 129l187 -43v-258zM905 532v156l164 -39zM987 709l150 237l135 62v-367z M1217 1516h55v-41z" />
<glyph unicode="&#x41d;" horiz-adv-x="1069" d="M76 0v53l43 -53h-43zM76 102v441l166 69l131 -170l-197 -442h-24zM76 586v217q8 20 18 55q35 111 94 334l316 -426zM76 899v447l88 -127zM76 1384v132h383v-117zM127 1346l332 14v-203l-246 72zM217 1204l242 -69v-185h143l-74 -166zM233 0l119 266l107 62v-328h-226z M266 639l254 106l-49 -110h-12v-29l-62 -139zM342 299l117 262v-196zM492 635l45 100l258 -178l-185 -106v184h-118zM557 770l164 352l272 -278v-68zM563 754l430 4v-66l-190 -106zM610 0v414l195 110l188 -131v-307l-293 -86h-90zM610 965v125l49 -17zM610 1114v258l181 12 l-132 -286zM610 1411v105h219l-41 -91zM743 1139l134 293l116 -150v-401zM811 0v4l182 41v-45h-182zM840 575l153 84v-192zM899 1446l31 70h63v-189z" />
<glyph unicode="&#x41e;" horiz-adv-x="1069" d="M70 293v53l405 -346h-104zM70 379v137l86 43l297 -211v-12h14l172 -123l53 -213h-153zM70 586v641l86 84l118 -193l19 -430zM180 575l273 125v-319zM190 1343l142 138l256 35l-31 -330h-104v-121l-99 12zM307 1108l146 -231v-140l-125 -57zM362 1044l91 -12v-131z M514 336h102v31l31 -125zM590 1186l18 178l391 -406v-32l-383 -121v381h-26zM616 539v166l261 -156zM616 721v49l261 80l122 -334v-22zM618 510l279 12l102 -59v-170l-264 -256zM627 1382l12 134h29q154 -94 331 -289v-232zM905 848l94 29v-279z" />
<glyph unicode="&#x41f;" horiz-adv-x="1067" d="M76 0v440l268 -440h-268zM76 498v338l381 -406v-430h-76zM76 868v41l381 -159v-254zM76 930v6l381 57v-200zM76 961v247l284 281l39 -459zM76 1272v244h250zM387 1516h47q6 -4 41 -314h-18v-158l-27 -6zM471 1516h166l346 -310v-342l-78 -12l-303 336v14h-14l-92 101z M496 1276l57 -74h-51zM602 0v209l135 88l121 -246l-113 -51h-143zM602 246v344l129 -262zM602 635v125l246 35l-189 -275zM602 786v361l275 -313zM682 1516h301v-271zM688 500l197 295l98 18v-813h-49zM819 0l45 20l10 -20h-55z" />
<glyph unicode="&#x420;" horiz-adv-x="1024" d="M76 0v129l65 -129h-65zM76 193v540l338 -241l-123 -492h-117zM76 766v72l418 -84l-60 -242zM76 885v631h262l39 -158l-238 -486zM168 848l213 479q25 -88 47 -176q29 -111 29 -176v-160h35l8 -33zM352 0l70 291l35 16v-307h-105zM381 1516h242q41 -10 92 -25q6 -2 14 -4 l229 -187v-137l-378 -98v117h-123v-11zM420 336l37 147v-131zM459 489l57 244l100 -244h-157zM520 815h47l-39 -37zM537 748l376 38q-53 -82 -108 -161q-92 -135 -111 -136h-53zM541 774l381 342l-166 -321zM580 827v207l311 84zM791 811l167 319v-301zM819 594l123 194h16 v-81z" />
<glyph unicode="&#x421;" horiz-adv-x="1056" d="M68 227v244l505 -471h-260q-63 55 -127 109q-74 66 -118 118zM68 502v329l125 -30l256 -371v-94h63l111 -160l39 -176h-56zM68 868v58l100 -37l-41 -33zM68 963v172l690 358l67 -59l-190 -383l-35 -9v140h-151v-174l-316 -70zM68 1167v133l245 216l422 -5zM137 913 l312 70v-184zM160 846l37 31l252 -93v-6zM211 811l238 -53v-291zM539 336h61v35l39 -183zM600 483v66h195l186 -131v-201l-272 -217zM600 973v43l39 10l-25 -53h-14zM659 973l148 303l174 -62v-241h-322zM825 1309l43 90l113 -101v-47zM862 549h119v-82z" />
<glyph unicode="&#x422;" horiz-adv-x="897" d="M33 1182v14l155 320h41l133 -537l-104 -213v416h-225zM33 1272v244h119zM258 0v496l139 10l-41 -506h-98zM258 520v131l172 90l-16 -209zM258 678v29l129 264l45 -207zM291 1516h135l-115 -74zM309 1405l170 111h189l-74 -242l-258 24zM332 1270l258 -29l-141 -448z M391 0l23 270l90 -57l22 -213h-135zM414 303l35 389h2l53 -446zM469 739l172 6v-102l-145 -201zM471 766l78 254l92 -55v-199h-170zM514 422l127 172v-594h-80zM569 1040l150 476h53l92 -164v-170h-223v-187zM815 1516h49v-89z" />
<glyph unicode="&#x423;" horiz-adv-x="1028" d="M68 221v76l190 186l188 -73v-74h127v16l291 -123l33 -45l-164 -159l-516 61zM68 338v94l122 82h52zM68 461v53h73zM68 834v124l59 -32l70 -207zM68 1004v122l378 91v-242l-198 -57zM68 1157v359h378v-267zM156 918l336 -164l-158 -156l-107 94zM246 897l200 57v-28h127 v61l246 70l-307 -283zM254 49l424 -49h-369zM274 514h172v-76zM367 598l145 135l332 -467l-271 119v213h-206zM532 766l189 174l225 -113zM539 750l413 61v-158l-190 -219zM573 1008v241l379 90v-139l-133 -123zM573 1278v238h379v-146zM754 958l198 181v-279zM791 422 l161 186v-372l-18 -17z" />
<glyph unicode="&#x424;" horiz-adv-x="1509" d="M57 461v411l271 -61l102 -565h-106zM57 944v111l267 217h249v244h37l66 -443l-144 -129h-100v-84zM360 823l72 -16v-232h141v201l160 -35l-233 -495h-33zM541 285l209 444l24 -348zM557 246l209 88l25 -334h-218v246h-16zM573 809v121l129 114l41 -274zM686 1516h252 v-244h250l123 -101l-70 -47l-500 15zM723 1102l500 -12l-211 -146h-74v-49l-168 -113zM774 745h164v-170h106l-243 -186zM782 766l156 104v-104h-156zM827 365l467 356h160v-260l-266 -215h-250v-246h-84zM1077 600v145h189zM1077 766v139l160 -139h-160zM1079 950l275 187 l100 -82v-279h-176z" />
<glyph unicode="&#x425;" horiz-adv-x="1038" d="M-10 0l104 276l182 207l431 29l215 -221l82 -211l-402 -27l-100 293l-107 -346h-405zM-10 1516h403l-295 -265zM115 1217l297 270l63 -189l-266 -311zM119 352l84 209l47 -45zM215 594l72 188l196 -28l-204 -213zM221 963l262 311l27 -74l39 148l37 32l-86 -598l-219 33z M317 520l195 221l172 -200zM524 791l86 471l183 -64zM541 741l227 -55l129 -334l-2 -2zM545 768l272 393l27 -43l-117 -325l31 -78zM555 1382l37 134h20l-20 -107zM608 33l406 20l20 -53h-413zM616 1300l31 216h25l223 -142l-82 -155zM733 1516h254l-61 -134zM836 1186 l75 174l9 -6l-64 -203z" />
<glyph unicode="&#x426;" horiz-adv-x="1067" d="M76 0v418l153 47l201 -465h-354zM76 473v252l381 -94v-45zM76 772v219l381 262v-442l-187 -86zM76 1040v476h381v-213zM254 496l203 61v-242h55l-47 -307zM305 707l152 71v-108zM504 0l39 250l307 160l115 -70v-25h102v-264l-328 -143v92h-235zM528 279l7 36h49v275 l233 -150zM584 659v181l110 51zM584 870v469l256 177h125v-27l-277 -567zM584 1389v127h186zM598 612l367 142v-113l-138 -168zM598 639l279 573l88 -135v-297zM739 -143l328 143v-295h-328v152zM866 459l99 123v-191zM899 1260l66 137v-250z" />
<glyph unicode="&#x427;" horiz-adv-x="1024" d="M66 709v8l137 2l168 -227h-41zM66 768v338l86 -76l-41 -260zM66 1139v4l378 -131v-181h35l8 -51zM66 1165v80l239 271h51l82 -480zM66 1298v218h192zM139 760l41 262l303 -256zM227 741l269 4l-29 -253h-55zM410 1516h34v-156l-10 16zM414 1348l30 -52v-125zM494 492 l28 245l426 -276v-21l-383 23v29h-71zM502 831h63v259l133 -226l-188 -82zM526 758l305 131l-77 -279zM565 0v434l383 -22v-301l-346 -111h-37zM565 1155v361h205l178 -86v-439l-231 -98zM729 0l219 70v-70h-219zM780 606l76 279l92 41v-428zM848 1516h100v-50z" />
<glyph unicode="&#x428;" horiz-adv-x="1503" d="M76 0v49l235 -49h-235zM76 92v197l381 241v-215h123v160l309 -203l74 -272h-431q-59 0 -374 78q-57 14 -82 14zM76 373v604l30 -12l66 -531zM76 1059v170l248 287h133v-506l-105 -58zM76 1288v228h198zM150 971l307 -119v-260l-244 -154zM371 918l86 47v-80zM580 520v111 l165 106l136 -428zM580 672v135l133 -53zM580 836v198l149 84l8 -342zM580 1079v242h129l4 -166zM754 1180l168 -66v-196l-160 -136zM754 1221v100h168v-158zM766 737l156 -57v-320l-21 -49zM770 762l152 127v-184zM926 287l12 28h109v299l380 -143v-188l-411 -283z M1047 670v307l380 319v-768zM1047 1022v63l61 -10zM1047 1114v402h380v-146l-288 -262zM1098 0l329 225v-225h-329z" />
<glyph unicode="&#x429;" horiz-adv-x="1531" d="M76 0v233l280 129l385 -282l-4 -80h-661zM76 307v205l381 696v-221l-334 -655zM76 580v936h381v-238zM147 338l310 602v-461zM379 399l78 35v-92zM492 315h88v177l206 94l-24 -469zM580 537v643l77 141h25l92 -694zM580 1229v92h49zM717 1321h205v-260l-172 24zM754 1040 l168 -28v-254l-111 -119zM795 90l24 481l103 -129v-127h100l272 -342l-90 -18v45h-4q-14 -2 -164 33q-80 20 -241 57zM801 0l2 49l205 -49h-207zM840 600l82 6v-110zM850 635l72 76v-72zM1047 340v278l380 31v-92l-315 -301zM1047 651v197l380 403v-569zM1047 893v98l79 -10 zM1047 1040v476h380v-177l-286 -311zM1159 233l268 256v-174h105v-585zM1204 -80l111 21l45 -64l-156 -151v194zM1241 -295l143 143l109 -143h-252z" />
<glyph unicode="&#x42a;" horiz-adv-x="1161" d="M2 1182v334h170l90 -197l-67 -137h-193zM209 0v328l115 135l149 -270l-18 -193h-246zM209 420v411l129 -262zM209 901v115l307 -260l-147 -176zM209 1038v88l82 162l225 -493zM217 1516h229l146 -154v-248l-244 123zM340 504l195 221l-50 -487zM348 1208l244 -123v-69 h137l8 -4l-188 -221zM500 1516h92v-97zM504 0l16 168l98 168h95v164l75 131l306 -113v-239l-512 -279h-78zM510 221l53 506l121 -41h-92v-340zM573 762l193 233l274 -409zM664 0l430 233v-18l-269 -215h-161zM713 555v121l57 -21zM803 1008l4 8h20l267 -219v-205l-21 6z" />
<glyph unicode="&#x42b;" horiz-adv-x="1533" d="M76 0v131l200 174l281 -239l-18 -66h-463zM76 203v798l209 -73l-86 -619zM76 1075v441h381v-476l-88 -79zM233 317l101 601l399 -168l-143 -125v61h-133v-176zM297 336l160 137v-137h133v252l153 133l-165 -612zM412 930l75 86h207l80 -66l-16 -164zM590 0l20 74l348 198 v-57l-262 -211q-4 0 -9 -2t-9 -2h-88zM616 109l162 616l180 -88v-328zM784 791l17 137l96 -80zM791 762l131 65l36 -30v-117zM1075 0v33l383 69v-102h-383zM1075 72v268l207 121l176 -88v-234zM1075 377v203l187 -93zM1075 641v25l180 315l203 102v-632zM1075 729v176 l144 74zM1075 938v221l133 -155zM1075 1217v299h383v-369l-225 -113z" />
<glyph unicode="&#x42c;" horiz-adv-x="1024" d="M78 0v102l112 156l269 111v-33h123v84l77 24l187 -319l-154 -125h-614zM78 188v422l182 -168zM78 678v293l94 -269zM78 1055v47l414 -336l-283 -70zM78 1139v155l381 33v-311h10l-129 -78zM78 1327v189h381v-156zM102 643l394 102l-201 -278zM193 295l266 364v-253z M354 926l160 90h182l4 -4l-176 -232zM477 686l35 47l25 -47h-60zM543 774l170 225l168 -137zM545 752l358 92l55 -47v-52l-233 -307l-143 248h-4zM582 455v147l63 -119zM745 412l213 278v-475l-73 -59z" />
<glyph unicode="&#x42d;" horiz-adv-x="1036" d="M51 217v189l371 -62v-8l158 -27l174 74l155 -195l-143 -139l-633 94zM51 444v84h371v-155zM51 1001v299l105 93l49 -93l-33 -299h-121zM172 111l567 -86l-24 -25h-422zM193 1425l94 86l674 -335v-193l-52 -22l-329 96v125h-158v-78l-74 22zM197 1001l30 277l144 -277 h-174zM340 1516h375l246 -232v-78zM344 1100l78 -23v-76h-27zM358 668v172l125 -82zM358 868v74h43l84 -160zM360 629l144 102l71 -102h-215zM426 942h154v90l323 -98l-391 -158zM522 745l260 -81l-77 -148zM541 762l420 172v-305zM575 629h5v-6l153 -217l-153 -64v281z M727 489l84 156l150 -47v-362l-19 -17z" />
<glyph unicode="&#x42e;" horiz-adv-x="1560" d="M76 0v70l86 -70h-86zM76 106v320l375 -426h-244zM76 471v320l196 -19l185 -246v-485zM76 840v303l88 -51l229 -281zM76 1204v193l381 110v-301l-264 -67zM76 1425v91h305zM221 1108l236 63v-204zM229 1067l228 -129v-2l293 -166l-316 27zM319 772l451 -37l72 -647 l-258 338v203h-127v-49zM508 936h76v268l405 107l-219 -520zM584 217v160l258 -334v-43h-13zM584 1239v61l243 216h248l-69 -170zM795 743l170 -28v-160l-119 -170zM799 774l166 389v-321zM819 762l146 61v-86zM854 348l111 144v-156h145v332l381 -64v-360l-244 -244h-358z M985 1182l141 334h121l244 -259v-184l-381 -160v269h-125zM1110 713v168l197 82l-11 -281zM1333 684l10 281l148 59v-367z" />
<glyph unicode="&#x42f;" horiz-adv-x="1056" d="M0 0v33l356 35l-65 -68h-291zM0 82v246h111v57l61 -66q-57 -79 -172 -237zM29 68l241 333l205 52v-271l-76 -76zM111 426v49l356 256l-274 -391zM111 498v96l139 102l-105 90l72 218l244 -244zM111 815v287l82 -86l-70 -209zM111 1153v49l274 31l-4 -232l65 -182z M111 1233v70l223 213h108l-57 -136v-114zM295 432l192 293l140 -201h-152v-41zM418 1001v357l145 -176h-88v-303h-6zM432 1399l53 117h156l340 -228v-381l-172 -39l-205 314h-4zM475 788v68h129v266l184 -276l-303 -76zM498 745l293 72l-144 -262zM604 0v80l291 41l86 -121 h-377zM604 119v364h49l213 -325zM678 539l145 260l158 37v-750zM700 1516h281v-187z" />
<glyph unicode="&#x430;" horiz-adv-x="1081" d="M76 0v125l383 -125h-383zM76 160v385l55 20l328 -293v-237zM76 606v420l100 -65l25 -306zM76 1071v10l383 -77v-181zM76 1106v108l59 62l739 67l-231 -356l-20 4v195h-164v-160zM154 590l305 119v-50h59l-31 -315h-28v-27zM170 1311l207 205h592l-92 -142zM217 958 l242 -155v-66l-213 -86zM516 344l29 315h78v41l290 -149l-299 -207h-98zM623 0v55l385 162v-217h-385zM623 98v221l303 209l82 -41v-227zM623 729v31l385 39v-66l-115 -143zM623 782v82l258 398l51 -447zM623 922v49l28 -6zM907 1280l101 154v-594l-50 -4zM926 586l82 100 v-141z" />
<glyph unicode="&#x431;" horiz-adv-x="1024" d="M76 0v299l610 -299h-610zM76 328v143l653 -238l72 -143l-88 -74zM76 496v65l432 172l20 -47h-71v-330zM76 600v313l418 -157zM76 930v53l301 70l127 -279zM76 1010v389l106 86l174 -412zM76 1440v76h102zM227 1516h684v-295l-669 254zM254 1444l643 -262h-440v-166h237 l101 -82l-86 -45l-263 98zM438 963l264 -99l-170 -96zM516 336h64v246l145 -312zM539 719l221 -346l-17 -82zM541 748l282 161l-168 -346zM680 549l168 340l110 -92v-582l-45 -35zM760 256l14 92l117 -186l-62 -45z" />
<glyph unicode="&#x432;" horiz-adv-x="1042" d="M76 0v72l49 71l674 -73l4 -9l-64 -61h-663zM76 178v735l215 -432zM76 975v37l428 -254l-189 -264zM76 1057v438l22 21h209l62 -238l-222 -264zM150 176l129 182l466 -125l60 -124zM168 985l223 264l33 -131l33 33v-225h18l37 -144zM281 381l247 348l50 -106h-121v-287 h143v237l150 -315zM373 1516h196l389 -299v-312l-358 80v197h-141zM508 926h92v30l338 -75l-82 -74l-309 -37zM545 741l272 -129l-110 -215l-107 226h-2zM553 754l227 28l181 -221zM616 1516h107l235 -207v-56zM737 365l111 217l133 -62v-299l-125 -112zM815 770v4h4z M819 766l162 -127v-70z" />
<glyph unicode="&#x433;" horiz-adv-x="833" d="M76 0v506l192 -213l-88 -293h-104zM76 561l342 176l-127 -418zM76 610v367l301 539h29v-275q-61 -184 -132 -395q-18 -53 -53 -162zM76 1032v484h268zM231 0l19 66l207 24v-90h-226zM236 674l180 524l10 -426zM250 102l24 86l183 156v-217zM276 213l154 514l27 -117v-241 zM438 1237l54 -55h-35v-391l-13 -9zM440 1272v121l355 -86v-125h-269zM444 1434v82h351v-173zM446 743h11v-43z" />
<glyph unicode="&#x434;" horiz-adv-x="1159" d="M25 -205v535h147v100l205 -78zM25 -295l192 291l602 278l316 -348v-221h-310v295h-491v-295h-309zM172 463v131l338 8v-61l-104 -166zM172 631v121l45 -121h-45zM172 827v119l338 -287v-36l-260 -5zM172 975v74l338 -37v-322zM172 1077v156l4 4l811 123v-168l-149 -188 l-203 22v156h-125v-142zM221 1282l234 234h532v-119zM256 63l254 412v-145h125v186l180 -201zM635 571v43l352 123v-119q0 -4 -8 -47q-20 -104 -64 -313zM635 637v33l178 223l117 -154zM635 721v278l203 -24zM852 918l135 172v-320l-20 -6zM954 252l33 162v-84h148v-277z " />
<glyph unicode="&#x435;" horiz-adv-x="872" d="M76 0v94l39 64l438 -158h-477zM76 193v284l141 -51zM76 510v100l342 131l-176 -290zM76 647v477l248 392h86q-14 -82 -33 -246l-12 -281l-199 -307zM76 1182v334h211zM129 188l88 148l240 53v-53h161l142 -336h-113zM184 668l193 274l41 -182zM215 365l223 368l51 -104 h-32v-209zM397 989l13 248l82 -55h-35v-240h161l-174 -160zM418 1276l24 186l367 -65v-215h-277zM444 1497v19h365v-80zM467 741l285 -20v-92h-232zM471 770l197 172h84v-190zM664 336h59l-33 -57zM700 256l48 80h61v-45l-78 -101zM743 160l66 86v-246z" />
<glyph unicode="&#x436;" horiz-adv-x="1509" d="M23 1518l120 -2l238 -312l49 -416l-242 27l66 53zM37 0v209l131 -209h-131zM37 295v389l113 98l182 -20l86 -279v-483h-193zM197 1516h213l69 -242l-168 92zM324 1327l168 -90l61 -213zM373 756l352 -15l-164 -331v231h-78l-59 -66zM416 1163l309 -389l-262 12zM557 1020 v180l178 -94l-2 -315zM557 1233l4 283h166l-4 -373zM561 0v29l375 24v-53h-375zM561 49v250l375 86v-295zM561 330v18l191 385l184 -151v-164zM762 774l4 307l393 -153zM766 756l291 112l-43 -227h-78v-27zM786 1114l5 402h145v-459zM946 1053l141 463h89l235 -168 l-151 -422zM1044 614l48 250l114 45l43 -14l-8 -27l219 -184v-123l-110 -282l-271 243v60zM1079 0v55l381 11v-66h-381zM1079 90v375l381 -340v-37zM1257 1516h216l-43 -121zM1378 252l82 207v-275z" />
<glyph unicode="&#x437;" horiz-adv-x="1042" d="M55 217v68l125 125l246 57v-131l-61 -230l-160 -24zM55 338v192h199zM55 1001v23l371 104v-127h-371zM55 1061v239l242 216h229l-20 -332h-80v-29zM199 440l90 90h137v-38zM229 59l129 15l-18 -74h-43zM362 639v162l113 -47zM362 836v90h134l-4 -146zM381 0l86 336h70 l290 -98l60 -86l-170 -152h-336zM381 623l115 114l-23 -114h-92zM496 623l22 106l297 -453l-231 72v275h-88zM522 772l4 154h58v86l297 -127zM530 745l256 80l43 -528zM539 1184l26 332h127l246 -216v-403l-354 147v140h-45zM813 834l107 36l-103 -92zM817 774l148 -106 v-447l-45 -39l-58 88z" />
<glyph unicode="&#x438;" horiz-adv-x="1052" d="M76 0v350l395 -211l-65 -139h-330zM76 393v379l100 27l428 -197l215 -602h-2l-180 96v400l-150 -320zM76 807v215l340 -84v-37zM76 1042v11l340 159v-254zM76 1090v426h340v-267zM209 811l207 66v-117l71 137l29 8l90 -274zM508 940l129 246v325l340 -319v-25zM551 895 l244 -303l-82 -178zM561 926l393 192l-176 -471zM637 0v53l121 -53h-121zM686 1516h291v-275zM737 373l82 178l158 -186v-365h-105zM805 639l172 463v-666z" />
<glyph unicode="&#x439;" horiz-adv-x="1052" d="M76 0v350l395 -211l-65 -139h-330zM76 393v379l100 27l428 -197l215 -602h-2l-180 96v400l-150 -320zM76 807v215l340 -84v-37zM76 1042v11l340 159v-254zM76 1090v426h340v-267zM209 811l207 66v-117l71 137l29 8l90 -274zM233 1743v96h175l-156 -115zM283 1694l196 145 l4 -283h-65zM508 940l129 246v325l340 -319v-25zM537 1556v50l51 -50h-51zM551 895l244 -303l-82 -178zM553 1640v109h4v90h268v-94l-186 -184zM561 926l393 192l-176 -471zM637 0v53l121 -53h-121zM686 1516h291v-275zM737 373l82 178l158 -186v-365h-105zM805 639l172 463 v-666z" />
<glyph unicode="&#x43a;" horiz-adv-x="1032" d="M76 0v672l67 8l269 -145l-232 -535h-104zM76 721v186l211 371l219 -504zM76 961v382l86 173h6l98 -222zM76 1417v99h49zM166 705l352 45l-47 -109h-14v-35l-23 -47zM233 1516h224v-291l-105 20zM258 0l37 84l162 10v-94h-199zM291 119l115 262l51 -2v-250zM350 1219 l107 -23v-182l51 172l307 -64l-278 -336zM399 408l58 129v-134zM500 641l41 92l323 -358l-264 18v189l-65 59h-35zM516 1212l64 211l331 -137l-51 -143zM557 745l424 -122v-13l-264 -41zM561 768l291 350l-88 -250l217 -184v-37zM590 1460l18 56h385l-69 -193zM600 0v102 l381 21v-123h-381zM600 137v232l268 -21l113 -123v-65zM745 549l236 37v-295z" />
<glyph unicode="&#x43b;" horiz-adv-x="1032" d="M-6 0v233l88 -233h-88zM-6 317v11h108v250l201 -201l-135 -377h-53zM102 614v181l347 -45q0 -2 -127 -355zM102 817v47l308 117l39 -174v-37zM102 899v358l185 189l98 -440zM209 0l164 418l76 2v-232l-211 -188h-29zM328 1489l28 27h336l-80 -252l-256 96zM356 1327 l254 -98l-35 -117v70h-126v-264zM381 440l68 185v-183zM575 0v135l381 191v-326h-381zM575 170v252l381 12v-74zM575 446v242l381 -221v-8zM575 709v49l232 16l78 -246zM575 778v275l7 14q10 31 26 92l113 -368zM637 1182l104 334h185l30 -46v-643l-206 -14zM848 762l108 8 v-270l-30 18z" />
<glyph unicode="&#x43c;" horiz-adv-x="1345" d="M76 0v78l59 -78h-59zM76 147v201l364 225v-573h-252zM76 424v471l30 -10l252 -287zM76 956v375l272 185h62l168 -324l-254 -303zM76 1380v136h198zM147 891l500 -133l-155 -96l-52 92v-123l-43 -27zM348 864l246 293l70 -137l-2 -242zM504 635l158 98l-52 -289zM627 414 l57 325l188 -43l-196 -364zM688 782v254l82 156l279 -250zM696 762l406 180l-152 -237l-45 8v41l-20 -35zM791 1229l147 287h223l111 -86v-363l-203 -90zM905 0v45l367 238v-283h-367zM905 84v412l180 129l187 -43v-258zM905 532v156l164 -39zM987 709l150 237l135 62v-367z M1217 1516h55v-41z" />
<glyph unicode="&#x43d;" horiz-adv-x="1069" d="M76 0v53l43 -53h-43zM76 102v441l166 69l131 -170l-197 -442h-24zM76 586v217q8 20 18 55q35 111 94 334l316 -426zM76 899v447l88 -127zM76 1384v132h383v-117zM127 1346l332 14v-203l-246 72zM217 1204l242 -69v-185h143l-74 -166zM233 0l119 266l107 62v-328h-226z M266 639l254 106l-49 -110h-12v-29l-62 -139zM342 299l117 262v-196zM492 635l45 100l258 -178l-185 -106v184h-118zM557 770l164 352l272 -278v-68zM563 754l430 4v-66l-190 -106zM610 0v414l195 110l188 -131v-307l-293 -86h-90zM610 965v125l49 -17zM610 1114v258l181 12 l-132 -286zM610 1411v105h219l-41 -91zM743 1139l134 293l116 -150v-401zM811 0v4l182 41v-45h-182zM840 575l153 84v-192zM899 1446l31 70h63v-189z" />
<glyph unicode="&#x43e;" horiz-adv-x="1069" d="M70 293v53l405 -346h-104zM70 379v137l86 43l297 -211v-12h14l172 -123l53 -213h-153zM70 586v641l86 84l118 -193l19 -430zM180 575l273 125v-319zM190 1343l142 138l256 35l-31 -330h-104v-121l-99 12zM307 1108l146 -231v-140l-125 -57zM362 1044l91 -12v-131z M514 336h102v31l31 -125zM590 1186l18 178l391 -406v-32l-383 -121v381h-26zM616 539v166l261 -156zM616 721v49l261 80l122 -334v-22zM618 510l279 12l102 -59v-170l-264 -256zM627 1382l12 134h29q154 -94 331 -289v-232zM905 848l94 29v-279z" />
<glyph unicode="&#x43f;" horiz-adv-x="1067" d="M76 0v440l268 -440h-268zM76 498v338l381 -406v-430h-76zM76 868v41l381 -159v-254zM76 930v6l381 57v-200zM76 961v247l284 281l39 -459zM76 1272v244h250zM387 1516h47q6 -4 41 -314h-18v-158l-27 -6zM471 1516h166l346 -310v-342l-78 -12l-303 336v14h-14l-92 101z M496 1276l57 -74h-51zM602 0v209l135 88l121 -246l-113 -51h-143zM602 246v344l129 -262zM602 635v125l246 35l-189 -275zM602 786v361l275 -313zM682 1516h301v-271zM688 500l197 295l98 18v-813h-49zM819 0l45 20l10 -20h-55z" />
<glyph unicode="&#x440;" horiz-adv-x="1024" d="M76 0v129l65 -129h-65zM76 193v540l338 -241l-123 -492h-117zM76 766v72l418 -84l-60 -242zM76 885v631h262l39 -158l-238 -486zM168 848l213 479q25 -88 47 -176q29 -111 29 -176v-160h35l8 -33zM352 0l70 291l35 16v-307h-105zM381 1516h242q41 -10 92 -25q6 -2 14 -4 l229 -187v-137l-378 -98v117h-123v-11zM420 336l37 147v-131zM459 489l57 244l100 -244h-157zM520 815h47l-39 -37zM537 748l376 38q-53 -82 -108 -161q-92 -135 -111 -136h-53zM541 774l381 342l-166 -321zM580 827v207l311 84zM791 811l167 319v-301zM819 594l123 194h16 v-81z" />
<glyph unicode="&#x441;" horiz-adv-x="1056" d="M68 227v244l505 -471h-260q-63 55 -127 109q-74 66 -118 118zM68 502v329l125 -30l256 -371v-94h63l111 -160l39 -176h-56zM68 868v58l100 -37l-41 -33zM68 963v172l690 358l67 -59l-190 -383l-35 -9v140h-151v-174l-316 -70zM68 1167v133l245 216l422 -5zM137 913 l312 70v-184zM160 846l37 31l252 -93v-6zM211 811l238 -53v-291zM539 336h61v35l39 -183zM600 483v66h195l186 -131v-201l-272 -217zM600 973v43l39 10l-25 -53h-14zM659 973l148 303l174 -62v-241h-322zM825 1309l43 90l113 -101v-47zM862 549h119v-82z" />
<glyph unicode="&#x442;" horiz-adv-x="897" d="M33 1182v14l155 320h41l133 -537l-104 -213v416h-225zM33 1272v244h119zM258 0v496l139 10l-41 -506h-98zM258 520v131l172 90l-16 -209zM258 678v29l129 264l45 -207zM291 1516h135l-115 -74zM309 1405l170 111h189l-74 -242l-258 24zM332 1270l258 -29l-141 -448z M391 0l23 270l90 -57l22 -213h-135zM414 303l35 389h2l53 -446zM469 739l172 6v-102l-145 -201zM471 766l78 254l92 -55v-199h-170zM514 422l127 172v-594h-80zM569 1040l150 476h53l92 -164v-170h-223v-187zM815 1516h49v-89z" />
<glyph unicode="&#x443;" horiz-adv-x="1028" d="M68 221v76l190 186l188 -73v-74h127v16l291 -123l33 -45l-164 -159l-516 61zM68 338v94l122 82h52zM68 461v53h73zM68 834v124l59 -32l70 -207zM68 1004v122l378 91v-242l-198 -57zM68 1157v359h378v-267zM156 918l336 -164l-158 -156l-107 94zM246 897l200 57v-28h127 v61l246 70l-307 -283zM254 49l424 -49h-369zM274 514h172v-76zM367 598l145 135l332 -467l-271 119v213h-206zM532 766l189 174l225 -113zM539 750l413 61v-158l-190 -219zM573 1008v241l379 90v-139l-133 -123zM573 1278v238h379v-146zM754 958l198 181v-279zM791 422 l161 186v-372l-18 -17z" />
<glyph unicode="&#x444;" horiz-adv-x="1509" d="M57 461v411l271 -61l102 -565h-106zM57 944v111l267 217h249v244h37l66 -443l-144 -129h-100v-84zM360 823l72 -16v-232h141v201l160 -35l-233 -495h-33zM541 285l209 444l24 -348zM557 246l209 88l25 -334h-218v246h-16zM573 809v121l129 114l41 -274zM686 1516h252 v-244h250l123 -101l-70 -47l-500 15zM723 1102l500 -12l-211 -146h-74v-49l-168 -113zM774 745h164v-170h106l-243 -186zM782 766l156 104v-104h-156zM827 365l467 356h160v-260l-266 -215h-250v-246h-84zM1077 600v145h189zM1077 766v139l160 -139h-160zM1079 950l275 187 l100 -82v-279h-176z" />
<glyph unicode="&#x445;" horiz-adv-x="1038" d="M-10 0l104 276l182 207l431 29l215 -221l82 -211l-402 -27l-100 293l-107 -346h-405zM-10 1516h403l-295 -265zM115 1217l297 270l63 -189l-266 -311zM119 352l84 209l47 -45zM215 594l72 188l196 -28l-204 -213zM221 963l262 311l27 -74l39 148l37 32l-86 -598l-219 33z M317 520l195 221l172 -200zM524 791l86 471l183 -64zM541 741l227 -55l129 -334l-2 -2zM545 768l272 393l27 -43l-117 -325l31 -78zM555 1382l37 134h20l-20 -107zM608 33l406 20l20 -53h-413zM616 1300l31 216h25l223 -142l-82 -155zM733 1516h254l-61 -134zM836 1186 l75 174l9 -6l-64 -203z" />
<glyph unicode="&#x446;" horiz-adv-x="1067" d="M76 0v418l153 47l201 -465h-354zM76 473v252l381 -94v-45zM76 772v219l381 262v-442l-187 -86zM76 1040v476h381v-213zM254 496l203 61v-242h55l-47 -307zM305 707l152 71v-108zM504 0l39 250l307 160l115 -70v-25h102v-264l-328 -143v92h-235zM528 279l7 36h49v275 l233 -150zM584 659v181l110 51zM584 870v469l256 177h125v-27l-277 -567zM584 1389v127h186zM598 612l367 142v-113l-138 -168zM598 639l279 573l88 -135v-297zM739 -143l328 143v-295h-328v152zM866 459l99 123v-191zM899 1260l66 137v-250z" />
<glyph unicode="&#x447;" horiz-adv-x="1024" d="M66 709v8l137 2l168 -227h-41zM66 768v338l86 -76l-41 -260zM66 1139v4l378 -131v-181h35l8 -51zM66 1165v80l239 271h51l82 -480zM66 1298v218h192zM139 760l41 262l303 -256zM227 741l269 4l-29 -253h-55zM410 1516h34v-156l-10 16zM414 1348l30 -52v-125zM494 492 l28 245l426 -276v-21l-383 23v29h-71zM502 831h63v259l133 -226l-188 -82zM526 758l305 131l-77 -279zM565 0v434l383 -22v-301l-346 -111h-37zM565 1155v361h205l178 -86v-439l-231 -98zM729 0l219 70v-70h-219zM780 606l76 279l92 41v-428zM848 1516h100v-50z" />
<glyph unicode="&#x448;" horiz-adv-x="1503" d="M76 0v49l235 -49h-235zM76 92v197l381 241v-215h123v160l309 -203l74 -272h-431q-59 0 -374 78q-57 14 -82 14zM76 373v604l30 -12l66 -531zM76 1059v170l248 287h133v-506l-105 -58zM76 1288v228h198zM150 971l307 -119v-260l-244 -154zM371 918l86 47v-80zM580 520v111 l165 106l136 -428zM580 672v135l133 -53zM580 836v198l149 84l8 -342zM580 1079v242h129l4 -166zM754 1180l168 -66v-196l-160 -136zM754 1221v100h168v-158zM766 737l156 -57v-320l-21 -49zM770 762l152 127v-184zM926 287l12 28h109v299l380 -143v-188l-411 -283z M1047 670v307l380 319v-768zM1047 1022v63l61 -10zM1047 1114v402h380v-146l-288 -262zM1098 0l329 225v-225h-329z" />
<glyph unicode="&#x449;" horiz-adv-x="1531" d="M76 0v233l280 129l385 -282l-4 -80h-661zM76 307v205l381 696v-221l-334 -655zM76 580v936h381v-238zM147 338l310 602v-461zM379 399l78 35v-92zM492 315h88v177l206 94l-24 -469zM580 537v643l77 141h25l92 -694zM580 1229v92h49zM717 1321h205v-260l-172 24zM754 1040 l168 -28v-254l-111 -119zM795 90l24 481l103 -129v-127h100l272 -342l-90 -18v45h-4q-14 -2 -164 33q-80 20 -241 57zM801 0l2 49l205 -49h-207zM840 600l82 6v-110zM850 635l72 76v-72zM1047 340v278l380 31v-92l-315 -301zM1047 651v197l380 403v-569zM1047 893v98l79 -10 zM1047 1040v476h380v-177l-286 -311zM1159 233l268 256v-174h105v-585zM1204 -80l111 21l45 -64l-156 -151v194zM1241 -295l143 143l109 -143h-252z" />
<glyph unicode="&#x44a;" horiz-adv-x="1161" d="M2 1182v334h170l90 -197l-67 -137h-193zM209 0v328l115 135l149 -270l-18 -193h-246zM209 420v411l129 -262zM209 901v115l307 -260l-147 -176zM209 1038v88l82 162l225 -493zM217 1516h229l146 -154v-248l-244 123zM340 504l195 221l-50 -487zM348 1208l244 -123v-69 h137l8 -4l-188 -221zM500 1516h92v-97zM504 0l16 168l98 168h95v164l75 131l306 -113v-239l-512 -279h-78zM510 221l53 506l121 -41h-92v-340zM573 762l193 233l274 -409zM664 0l430 233v-18l-269 -215h-161zM713 555v121l57 -21zM803 1008l4 8h20l267 -219v-205l-21 6z" />
<glyph unicode="&#x44b;" horiz-adv-x="1533" d="M76 0v131l200 174l281 -239l-18 -66h-463zM76 203v798l209 -73l-86 -619zM76 1075v441h381v-476l-88 -79zM233 317l101 601l399 -168l-143 -125v61h-133v-176zM297 336l160 137v-137h133v252l153 133l-165 -612zM412 930l75 86h207l80 -66l-16 -164zM590 0l20 74l348 198 v-57l-262 -211q-4 0 -9 -2t-9 -2h-88zM616 109l162 616l180 -88v-328zM784 791l17 137l96 -80zM791 762l131 65l36 -30v-117zM1075 0v33l383 69v-102h-383zM1075 72v268l207 121l176 -88v-234zM1075 377v203l187 -93zM1075 641v25l180 315l203 102v-632zM1075 729v176 l144 74zM1075 938v221l133 -155zM1075 1217v299h383v-369l-225 -113z" />
<glyph unicode="&#x44c;" horiz-adv-x="1024" d="M78 0v102l112 156l269 111v-33h123v84l77 24l187 -319l-154 -125h-614zM78 188v422l182 -168zM78 678v293l94 -269zM78 1055v47l414 -336l-283 -70zM78 1139v155l381 33v-311h10l-129 -78zM78 1327v189h381v-156zM102 643l394 102l-201 -278zM193 295l266 364v-253z M354 926l160 90h182l4 -4l-176 -232zM477 686l35 47l25 -47h-60zM543 774l170 225l168 -137zM545 752l358 92l55 -47v-52l-233 -307l-143 248h-4zM582 455v147l63 -119zM745 412l213 278v-475l-73 -59z" />
<glyph unicode="&#x44d;" horiz-adv-x="1036" d="M51 217v189l371 -62v-8l158 -27l174 74l155 -195l-143 -139l-633 94zM51 444v84h371v-155zM51 1001v299l105 93l49 -93l-33 -299h-121zM172 111l567 -86l-24 -25h-422zM193 1425l94 86l674 -335v-193l-52 -22l-329 96v125h-158v-78l-74 22zM197 1001l30 277l144 -277 h-174zM340 1516h375l246 -232v-78zM344 1100l78 -23v-76h-27zM358 668v172l125 -82zM358 868v74h43l84 -160zM360 629l144 102l71 -102h-215zM426 942h154v90l323 -98l-391 -158zM522 745l260 -81l-77 -148zM541 762l420 172v-305zM575 629h5v-6l153 -217l-153 -64v281z M727 489l84 156l150 -47v-362l-19 -17z" />
<glyph unicode="&#x44e;" horiz-adv-x="1560" d="M76 0v70l86 -70h-86zM76 106v320l375 -426h-244zM76 471v320l196 -19l185 -246v-485zM76 840v303l88 -51l229 -281zM76 1204v193l381 110v-301l-264 -67zM76 1425v91h305zM221 1108l236 63v-204zM229 1067l228 -129v-2l293 -166l-316 27zM319 772l451 -37l72 -647 l-258 338v203h-127v-49zM508 936h76v268l405 107l-219 -520zM584 217v160l258 -334v-43h-13zM584 1239v61l243 216h248l-69 -170zM795 743l170 -28v-160l-119 -170zM799 774l166 389v-321zM819 762l146 61v-86zM854 348l111 144v-156h145v332l381 -64v-360l-244 -244h-358z M985 1182l141 334h121l244 -259v-184l-381 -160v269h-125zM1110 713v168l197 82l-11 -281zM1333 684l10 281l148 59v-367z" />
<glyph unicode="&#x44f;" horiz-adv-x="1056" d="M0 0v33l356 35l-65 -68h-291zM0 82v246h111v57l61 -66q-57 -79 -172 -237zM29 68l241 333l205 52v-271l-76 -76zM111 426v49l356 256l-274 -391zM111 498v96l139 102l-105 90l72 218l244 -244zM111 815v287l82 -86l-70 -209zM111 1153v49l274 31l-4 -232l65 -182z M111 1233v70l223 213h108l-57 -136v-114zM295 432l192 293l140 -201h-152v-41zM418 1001v357l145 -176h-88v-303h-6zM432 1399l53 117h156l340 -228v-381l-172 -39l-205 314h-4zM475 788v68h129v266l184 -276l-303 -76zM498 745l293 72l-144 -262zM604 0v80l291 41l86 -121 h-377zM604 119v364h49l213 -325zM678 539l145 260l158 37v-750zM700 1516h281v-187z" />
<glyph unicode="&#x451;" horiz-adv-x="872" d="M76 0v94l39 64l438 -158h-477zM76 193v284l141 -51zM76 510v100l342 131l-176 -290zM76 647v477l248 392h86q-14 -82 -33 -246l-12 -281l-199 -307zM76 1182v334h211zM129 188l88 148l240 53v-53h161l142 -336h-113zM129 1608v18l266 197v-215h-266zM129 1667v193h260z M184 668l193 274l41 -182zM215 365l223 368l51 -104h-32v-209zM397 989l13 248l82 -55h-35v-240h161l-174 -160zM418 1276l24 186l367 -65v-215h-277zM444 1497v19h365v-80zM467 741l285 -20v-92h-232zM471 770l197 172h84v-190zM492 1608l6 174l254 -144v-30h-260z M518 1812l2 48h232v-181zM664 336h59l-33 -57zM700 256l48 80h61v-45l-78 -101zM743 160l66 86v-246z" />
<glyph unicode="&#x2000;" horiz-adv-x="958" />
<glyph unicode="&#x2001;" horiz-adv-x="1917" />
<glyph unicode="&#x2002;" horiz-adv-x="958" />
<glyph unicode="&#x2003;" horiz-adv-x="1917" />
<glyph unicode="&#x2004;" horiz-adv-x="639" />
<glyph unicode="&#x2005;" horiz-adv-x="479" />
<glyph unicode="&#x2006;" horiz-adv-x="319" />
<glyph unicode="&#x2007;" horiz-adv-x="319" />
<glyph unicode="&#x2008;" horiz-adv-x="239" />
<glyph unicode="&#x2009;" horiz-adv-x="383" />
<glyph unicode="&#x200a;" horiz-adv-x="106" />
<glyph unicode="&#x2010;" horiz-adv-x="692" d="M94 569v54l113 26l102 -88h-198zM94 647v174h33l-21 -170zM115 647l20 174h27l47 -35l-25 -122zM193 662l24 122l119 -90zM193 821h174l-101 -55zM213 655l127 29l14 -123h-28zM268 758l117 63h37l-76 -121zM348 684l29 -66l-8 -57h-9zM352 690l172 53l-133 -137z M352 696l49 82l58 -49zM373 561l8 43l18 -43h-26zM397 602l133 139l56 17l-90 -197h-80zM414 786l20 35h164v-43l-129 -41zM504 561q45 94 94 193v-193h-94z" />
<glyph unicode="&#x2011;" horiz-adv-x="692" d="M94 569v54l113 26l102 -88h-198zM94 647v174h33l-21 -170zM115 647l20 174h27l47 -35l-25 -122zM193 662l24 122l119 -90zM193 821h174l-101 -55zM213 655l127 29l14 -123h-28zM268 758l117 63h37l-76 -121zM348 684l29 -66l-8 -57h-9zM352 690l172 53l-133 -137z M352 696l49 82l58 -49zM373 561l8 43l18 -43h-26zM397 602l133 139l56 17l-90 -197h-80zM414 786l20 35h164v-43l-129 -41zM504 561q45 94 94 193v-193h-94z" />
<glyph unicode="&#x2012;" horiz-adv-x="692" d="M94 569v54l113 26l102 -88h-198zM94 647v174h33l-21 -170zM115 647l20 174h27l47 -35l-25 -122zM193 662l24 122l119 -90zM193 821h174l-101 -55zM213 655l127 29l14 -123h-28zM268 758l117 63h37l-76 -121zM348 684l29 -66l-8 -57h-9zM352 690l172 53l-133 -137z M352 696l49 82l58 -49zM373 561l8 43l18 -43h-26zM397 602l133 139l56 17l-90 -197h-80zM414 786l20 35h164v-43l-129 -41zM504 561q45 94 94 193v-193h-94z" />
<glyph unicode="&#x2013;" horiz-adv-x="1136" d="M0 623v172h115zM14 602l127 193h211l-67 -140zM86 582l283 53l-4 -53h-279zM301 647l70 148h137l45 -99zM385 582l8 65l162 33l-84 -98h-86zM485 582l80 90l13 -90h-93zM532 795h91l-54 -86zM582 684l346 33l-260 -135h-70zM588 700l55 95h252l31 -62zM698 582l240 125 l98 10l-98 -135h-240zM913 795h156l29 -37l-156 -17zM967 582l86 114l84 9v-123h-170zM1094 795h43v-25l-23 -2z" />
<glyph unicode="&#x2014;" horiz-adv-x="2209" d="M0 582v213h242l-76 -213h-166zM213 582l74 213h381l-17 -164q-10 -2 -157 -35q-29 -6 -58 -14h-223zM682 618l16 177h324l55 -90zM807 600l287 64l6 -82h-281zM1053 795h90l-45 -72zM1110 651l18 -69h-14zM1128 676l527 49l-123 -143h-381zM1141 709l51 86h643l23 -19z M1589 582l99 116l522 50v-105l-39 -61h-582z" />
<glyph unicode="&#x2018;" horiz-adv-x="552" d="M80 1247v252l98 -143l-2 -135l-65 -21zM80 1536h63l-28 -51zM121 1470l35 66h71l15 -111l-41 -69zM123 1184l143 47l58 -160l-162 53zM172 1110l147 -49l29 -82l-65 -37zM188 1217l2 135l76 -109zM205 1341l43 68l22 -160zM246 1507l182 -30l-39 -58l-137 35zM248 1536 h182v-41l-180 33zM250 1444l135 -35l-109 -156zM281 1233l79 -45l41 -53l-90 10zM283 1243l123 180l4 -235h-27zM319 1135l91 -11l57 -75l-98 -58zM418 1188v237l12 17v-254h-12z" />
<glyph unicode="&#x2019;" horiz-adv-x="550" d="M66 1053l79 104l56 -137l-8 -45l-121 69zM98 1188v78l4 -2l31 -76h-35zM98 1372l148 -127l-140 37q-8 49 -8 90zM98 1384v107l193 4l-29 -152l-127 11zM98 1507v29h191l-4 -20zM113 1270l137 -37l-39 -207l-57 141l16 21h-25zM139 1343l129 -12l-14 -86zM211 963l6 32 l78 129l24 -67l-73 -115zM215 1012l41 217l35 -90zM266 1233l164 -16q-27 -59 -115 -111zM266 1241l17 102l159 -106l-8 -12zM291 1352l33 184h55l72 -106zM328 1096l41 32l-33 -51zM395 1536h56v-82z" />
<glyph unicode="&#x201a;" horiz-adv-x="552" d="M66 -170l47 64l159 -52l11 -67l-35 -51zM100 0v188l47 -57zM100 -29q6 18 56 160l94 -111l-86 -59l8 10h-72zM100 223v70q47 25 224 24l-50 -190l-127 41zM100 311v6h29zM119 -96q8 18 61 59q47 35 74 49l20 -159zM150 156l129 -41l-25 -86zM264 14l127 -69l-112 -39z M266 27l27 106l143 -72zM270 20l183 37v-28l-54 -78zM287 -106l98 32l-86 -123zM301 141l45 176h12l95 -122v-125h-11zM377 317h76v-98z" />
<glyph unicode="&#x201c;" horiz-adv-x="950" d="M66 948v275l118 -275h-118zM76 1253l133 -8l57 -221l-61 -70zM96 1282l172 262l166 -102l4 -25l-35 -43l-170 -98zM223 1253l193 -12v-53l-137 -158zM233 948l78 88l105 8v-96h-183zM244 1264l133 75l-33 -43h72v-43zM317 1057l99 112v-108zM500 1130v95l118 -62 l-106 -168q-12 86 -12 135zM504 1241l4 8l229 78l23 -221zM520 981l109 168l182 -96l-90 -105h-197zM520 1266l49 77l82 -32zM582 1358l123 184l182 -108l-37 -45l-186 -64zM752 948l73 84l27 -12v-72h-100zM758 1323l57 20l-35 -47h72v-231l-74 39z" />
<glyph unicode="&#x201d;" horiz-adv-x="950" d="M63 1049l19 24l12 -43zM94 1090l76 98h-72v151l131 -43l86 -252l-69 -102l-127 74zM98 1376v41l176 119h103l8 -29l-131 -182zM98 1446v90h135zM244 1303l200 -64l-116 -174zM264 1315l131 180l56 -197v-45zM406 1522l45 -17v-141zM410 1536h41v-14zM500 1049l45 61 l65 -102l-32 -7zM535 1188v41l256 -21l-209 -118l-25 36l49 62h-71zM535 1237v25l133 67l116 -112zM535 1280v195l219 -86zM535 1491v45h174l139 -86l-90 -45zM598 1079l209 117l41 -4l-164 -246zM602 987h8l8 -8zM692 1335l193 95v-183l-21 -30l-57 4zM745 1536h140v-55 l-29 -15z" />
<glyph unicode="&#x201e;" horiz-adv-x="950" d="M63 -170l107 139h-72v84l123 -16l41 -244l-45 -53zM98 115v202h92zM102 88l107 229h92l-68 -247zM242 43l200 -27q-49 -76 -159 -217zM246 61l69 256h4l132 -264v-20zM344 317h107v-124h-45zM401 176l50 -2v-94zM500 -170l2 4l131 6l76 -76l-19 -28l-26 -2zM512 -154 l53 72l66 -65zM535 8l227 -16l-29 -191l-10 -16l-148 145l31 39h-71v39zM535 25v69l98 131l14 -209zM535 111v61l43 -2zM535 188v129h143l-96 -129h-47zM651 233l66 84h88l80 -106v-182l-17 -21l-202 12zM758 -164l22 148l72 -4zM836 317h49v-63z" />
<glyph unicode="&#x2026;" horiz-adv-x="2209" d="M199 -25v349h141l-82 -349h-59zM307 -25l86 349h187v-349h-273zM915 23l175 102l-70 -150h-105v48zM915 45v195l170 -93zM915 268v23l76 33h238l-123 -158zM1038 -25l64 140l39 -140h-103zM1122 160l131 164h43v-156zM1128 131l168 8v-164h-125zM1634 -25v160l379 21 v-158l-14 -23h-365zM1634 205v119h172l4 -111zM1849 324h164v-76l-160 -8z" />
<glyph unicode="&#x202f;" horiz-adv-x="383" />
<glyph unicode="&#x2039;" horiz-adv-x="491" d="M70 516v10l176 142l-58 -330zM70 545v168l172 -31zM70 727v18l211 99l-29 -150zM70 762v92l217 332l45 -23l-58 -305zM209 305l33 172l143 19l49 -172l-151 -129zM236 496l32 180l74 -33l39 -131zM266 694l29 158l57 -70l-18 -77zM274 686l58 8l-2 -10l6 -27zM307 864 l53 283l74 -39l-74 -303zM328 213l110 94l11 -28z" />
<glyph unicode="&#x203a;" horiz-adv-x="491" d="M39 1094l164 92l63 -96l-215 -37zM55 266l15 58l223 2l-90 -138zM57 1034l219 41l74 -110l-6 -11l-260 -12zM74 344l16 62l275 40l4 -8l-62 -92zM88 928l258 12l-121 -235l-102 108zM92 418l29 114l106 138l138 -211zM131 573l29 115l-2 6l59 -10zM131 786l86 -90l-63 13 zM242 682l180 10v-69l-76 -99zM246 692l57 115l119 -37v-70zM317 817l58 113l47 -72v-76zM365 512l57 74v-68l-33 -47z" />
<glyph unicode="&#x205f;" horiz-adv-x="479" />
<glyph unicode="&#x2122;" horiz-adv-x="1626" d="M184 1329v170h506v-170h-153v-426h-199v426h-154zM733 903v596h234l94 -264l90 264h235v-596h-186v254l-90 -254h-100l-92 256v-256h-185z" />
<glyph unicode="&#xe000;" horiz-adv-x="1515" d="M0 0v1516h1516v-1516h-1516z" />
</font>
</defs>
</svg>
